<svg id="Layer_1" data-name="Layer 1" xmlns="http://www.w3.org/2000/svg" viewBox="0 0 96.59 89.5"><defs><style>.cls-1{fill:#565656;}</style></defs><path class="cls-1" d="M70.94,94.61l6.49-3.74a6.24,6.24,0,0,0,2.27-8.5l-5.15-8.94a3.72,3.72,0,0,1,.29-4.16A32.38,32.38,0,0,0,79,62.06a3.75,3.75,0,0,1,3.46-2.34h9.14A6.24,6.24,0,0,0,97.8,53.5V46a6.24,6.24,0,0,0-6.22-6.23H82.45A3.77,3.77,0,0,1,79,37.42a32.42,32.42,0,0,0-2.83-5.34A3.75,3.75,0,0,1,76,28.13l4.17-7.24a6.24,6.24,0,0,0-2.28-8.5L71.42,8.65a6.24,6.24,0,0,0-8.5,2.28L59.76,16.4a3.7,3.7,0,0,1-3.94,1.81,32.07,32.07,0,0,0-12.53-.14,3.79,3.79,0,0,1-4-1.79L35.12,9.05a6.24,6.24,0,0,0-8.5-2.28l-6.49,3.75A6.24,6.24,0,0,0,17.86,19l4.92,8.52a3.75,3.75,0,0,1-.17,4,32.42,32.42,0,0,0-3.2,5.88A3.74,3.74,0,0,1,16,39.78H7.43A6.24,6.24,0,0,0,1.21,46V53.5a6.24,6.24,0,0,0,6.22,6.22H16a3.75,3.75,0,0,1,3.46,2.34,32.27,32.27,0,0,0,3.43,6.24,3.75,3.75,0,0,1,.2,4l-4.71,8.15A6.25,6.25,0,0,0,20.61,89l6.49,3.74a6.24,6.24,0,0,0,8.5-2.28l4.12-7.14a3.78,3.78,0,0,1,4-1.8A32.29,32.29,0,0,0,49.2,82a31.12,31.12,0,0,0,4.34-.3,3.77,3.77,0,0,1,3.81,1.83l5.09,8.82A6.24,6.24,0,0,0,70.94,94.61ZM34.08,49.75A15.12,15.12,0,1,1,49.2,64.86,15.11,15.11,0,0,1,34.08,49.75Z" transform="translate(-1.21 -5.94)"/></svg>