<?xml version="1.0" encoding="utf-8"?>
<!-- Generator: Adobe Illustrator 25.4.1, SVG Export Plug-In . SVG Version: 6.00 Build 0)  -->
<svg version="1.1" id="Layer_1" xmlns="http://www.w3.org/2000/svg" xmlns:xlink="http://www.w3.org/1999/xlink" x="0px" y="0px"
	 viewBox="0 0 19 19" style="enable-background:new 0 0 19 19;" xml:space="preserve">
<style type="text/css">
	.st0{fill:#E5E9EF;}
</style>
<g>
	<path class="st0" d="M15.52,12.41c-0.08-0.03-0.07,0.03-0.08,0.08c-0.26,1.11-0.92,1.86-2.03,2.15c-0.89,0.23-1.71,0.05-2.44-0.54
		c-0.42-0.34-0.71-0.77-0.88-1.28c-0.4-1.28,0.14-2.64,1.33-3.28c1.66-0.9,3.65,0.11,4.02,1.91c0.01,0.05-0.01,0.13,0.08,0.11
		c0,0.06,0,0.11,0,0.17c-0.02-0.01-0.04-0.01-0.04,0.01c0,0.01,0.02,0.02,0.04,0.03c0,0.14,0,0.29,0,0.43
		c-0.01,0.01-0.04,0.02-0.04,0.03c0,0.02,0.02,0.02,0.04,0.01C15.52,12.3,15.52,12.35,15.52,12.41z"/>
	<path class="st0" d="M3.52,11.6c0.12,0.02,0.08-0.08,0.09-0.13c0.25-1.07,0.88-1.81,1.94-2.14c1.19-0.37,2.47,0.12,3.13,1.19
		c0.98,1.59,0.17,3.72-1.74,4.15c-1.63,0.36-3.05-0.71-3.33-2.26c-0.03-0.18-0.04-0.35-0.04-0.53c0-0.06,0.04-0.14-0.04-0.19
		C3.52,11.65,3.52,11.63,3.52,11.6z"/>
	<path class="st0" d="M15.52,11.77c-0.01-0.01-0.04-0.02-0.04-0.03c0-0.02,0.02-0.02,0.04-0.01C15.52,11.74,15.52,11.75,15.52,11.77
		z"/>
	<path class="st0" d="M15.52,12.24c-0.02,0.01-0.03,0.01-0.04-0.01c0-0.01,0.02-0.02,0.04-0.03C15.52,12.21,15.52,12.23,15.52,12.24
		z"/>
	<path class="st0" d="M6.77,6.42C6.76,4.93,7.98,3.67,9.53,3.68c1.54,0.01,2.75,1.21,2.75,2.76c0,1.63-1.35,2.81-2.86,2.76
		C8.04,9.15,6.75,8,6.77,6.42z"/>
</g>
</svg>
