<?xml version="1.0" encoding="utf-8"?>
<!-- Generator: Adobe Illustrator 25.4.1, SVG Export Plug-In . SVG Version: 6.00 Build 0)  -->
<svg version="1.1" id="Layer_1" xmlns="http://www.w3.org/2000/svg" xmlns:xlink="http://www.w3.org/1999/xlink" x="0px" y="0px"
	 viewBox="0 0 19 19" style="enable-background:new 0 0 19 19;" xml:space="preserve">
<style type="text/css">
	.st0{fill:#E5E9EF;}
</style>
<g>
	<path class="st0" d="M13.33,11.64c-0.51-0.29-1-0.58-1.52-0.87c-0.01,0.08-0.01,0.14-0.01,0.19c0,1.02,0,2.05,0,3.07
		c0,0.11-0.03,0.16-0.12,0.21c-0.6,0.35-1.2,0.7-1.8,1.05c-0.03,0.02-0.06,0.02-0.09,0.04c0-4,0-7.98,0-11.98
		c0.13,0.07,0.24,0.13,0.34,0.19c1.26,0.72,2.51,1.44,3.77,2.16c0.29,0.17,0.58,0.33,0.87,0.5c0.07,0.04,0.11,0.09,0.11,0.18
		c0,0.79,0,1.58,0.01,2.37c0,0.03-0.01,0.07-0.01,0.13c-1.03-0.59-2.03-1.17-3.06-1.76C11.8,7.18,11.8,7.22,11.8,7.26
		c0,0.37,0,0.74,0,1.11c0,0.09,0.03,0.14,0.11,0.18c0.45,0.26,0.9,0.51,1.34,0.77c0.04,0.02,0.09,0.09,0.09,0.13
		c0.01,0.7,0.01,1.41,0.01,2.11C13.34,11.58,13.34,11.6,13.33,11.64z"/>
	<path class="st0" d="M9.27,15.35c-0.17-0.1-0.31-0.18-0.46-0.27c-0.48-0.28-0.97-0.57-1.46-0.84c-0.09-0.05-0.12-0.11-0.12-0.21
		c0-2.23,0-4.46,0-6.7c0-0.06,0-0.12,0-0.22C6.2,7.72,5.18,8.3,4.15,8.9c0-0.06-0.01-0.09-0.01-0.13c0-0.79,0-1.59,0-2.38
		c0-0.1,0.04-0.16,0.12-0.21C5.3,5.6,6.34,5,7.38,4.41c0.6-0.34,1.19-0.68,1.79-1.02C9.2,3.38,9.23,3.37,9.27,3.35
		C9.27,7.35,9.27,11.33,9.27,15.35z"/>
</g>
</svg>
