<svg id="Layer_1" data-name="Layer 1" xmlns="http://www.w3.org/2000/svg" viewBox="0 0 253.77 253.77"><defs><style>.cls-1{fill:none;stroke:#231f20;stroke-miterlimit:10;}</style></defs><rect class="cls-1" x="0.5" y="0.5" width="63.19" height="63.19"/><rect class="cls-1" x="63.69" y="0.5" width="63.19" height="63.19"/><rect class="cls-1" x="126.88" y="0.5" width="63.19" height="63.19"/><rect class="cls-1" x="190.07" y="0.5" width="63.19" height="63.19"/><rect class="cls-1" x="0.5" y="63.69" width="63.19" height="63.19"/><rect class="cls-1" x="63.69" y="63.69" width="63.19" height="63.19"/><rect class="cls-1" x="126.88" y="63.69" width="63.19" height="63.19"/><rect class="cls-1" x="190.07" y="63.69" width="63.19" height="63.19"/><rect class="cls-1" x="0.5" y="126.88" width="63.19" height="63.19"/><rect class="cls-1" x="63.69" y="126.88" width="63.19" height="63.19"/><rect class="cls-1" x="126.88" y="126.88" width="63.19" height="63.19"/><rect class="cls-1" x="190.07" y="126.88" width="63.19" height="63.19"/><rect class="cls-1" x="0.5" y="190.07" width="63.19" height="63.19"/><rect class="cls-1" x="63.69" y="190.07" width="63.19" height="63.19"/><rect class="cls-1" x="126.88" y="190.07" width="63.19" height="63.19"/><rect class="cls-1" x="190.07" y="190.07" width="63.19" height="63.19"/></svg>