<?xml version="1.0" encoding="utf-8"?>
<!-- Generator: Adobe Illustrator 25.4.1, SVG Export Plug-In . SVG Version: 6.00 Build 0)  -->
<svg version="1.1" id="Layer_1" xmlns="http://www.w3.org/2000/svg" xmlns:xlink="http://www.w3.org/1999/xlink" x="0px" y="0px"
	 viewBox="0 0 19 19" style="enable-background:new 0 0 19 19;" xml:space="preserve">
<style type="text/css">
	.st0{fill:#555555;}
</style>
<g>
	<path class="st0" d="M11.02,12.88c0.33-0.07,0.64-0.12,0.95-0.2c1.41-0.37,2.23-1.36,2.35-2.81c0.05-0.54,0.07-1.08-0.1-1.61
		c-0.11-0.35-0.28-0.67-0.52-0.94c-0.07-0.08-0.08-0.15-0.05-0.25c0.18-0.58,0.11-1.15-0.07-1.72c-0.03-0.1-0.1-0.15-0.19-0.13
		c-0.3,0.07-0.61,0.12-0.89,0.23c-0.31,0.12-0.58,0.32-0.88,0.47c-0.07,0.04-0.17,0.06-0.24,0.04C10.25,5.7,9.13,5.69,8.01,5.96
		C7.86,6,7.76,5.97,7.64,5.9c-0.47-0.3-0.95-0.57-1.51-0.65C6.06,5.23,6,5.23,5.93,5.23c-0.1-0.01-0.16,0.04-0.19,0.14
		C5.55,5.94,5.51,6.51,5.67,7.1c0.02,0.06,0,0.15-0.04,0.2C5.08,7.98,4.9,8.76,4.97,9.63c0.04,0.5,0.13,0.99,0.34,1.46
		c0.42,0.93,1.2,1.42,2.16,1.64c0.26,0.06,0.53,0.1,0.82,0.15c-0.24,0.26-0.37,0.57-0.43,0.91c-0.01,0.04-0.07,0.09-0.11,0.11
		c-0.82,0.32-1.56,0.15-2.02-0.64c-0.24-0.4-0.56-0.68-1.03-0.77c-0.1-0.02-0.21-0.01-0.31,0.02c-0.16,0.04-0.18,0.13-0.07,0.25
		c0.05,0.06,0.11,0.11,0.17,0.15c0.38,0.22,0.64,0.55,0.78,0.96c0.32,0.9,1.19,1.19,2,1.12c0.17-0.02,0.35-0.04,0.55-0.07
		c0,0.08,0,0.15,0,0.23c0,0.35,0.01,0.7,0.01,1.05c0,0.38-0.22,0.54-0.58,0.41c-1.97-0.72-3.41-2.02-4.28-3.92
		C1.63,9.74,2.3,6.38,4.64,4.17c1.14-1.08,2.51-1.74,4.07-1.92c2.51-0.29,4.64,0.5,6.36,2.34c1.07,1.14,1.67,2.51,1.87,4.06
		c0.46,3.45-1.58,6.79-4.86,7.95c-0.4,0.14-0.61,0-0.61-0.43c0-0.6,0-1.2,0.01-1.8C11.49,13.82,11.41,13.3,11.02,12.88z"/>
</g>
</svg>
