<?xml version="1.0" encoding="utf-8"?>
<!-- Generator: Adobe Illustrator 25.4.1, SVG Export Plug-In . SVG Version: 6.00 Build 0)  -->
<svg version="1.1" id="Layer_1" xmlns="http://www.w3.org/2000/svg" xmlns:xlink="http://www.w3.org/1999/xlink" x="0px" y="0px"
	 viewBox="0 0 19 19" style="enable-background:new 0 0 19 19;" xml:space="preserve">
<style type="text/css">
	.st0{fill:#555555;}
</style>
<path class="st0" d="M2.45,14.21c0-3.24,0-6.49,0-9.73c0.33-1.14,1.06-1.88,2.2-2.2c3.24,0,6.49,0,9.73,0
	c1.74,0.67,2.2,1.35,2.2,3.25c0,2.68,0,5.36,0,8.04c0,1.76-1.09,2.84-2.85,2.85c-2.81,0-5.63,0-8.44,0c-0.27,0-0.54-0.03-0.8-0.08
	C3.35,16.07,2.78,15.25,2.45,14.21z M12.19,14.27c0.81,0,1.52,0,2.16,0c0-1.63,0.1-3.23-0.03-4.82c-0.1-1.2-1.12-1.87-2.33-1.89
	c-0.77-0.01-1.35,0.32-1.87,0.91c-0.02-0.29-0.03-0.5-0.05-0.74c-0.74,0-1.46,0-2.18,0c0,2.2,0,4.36,0,6.53c0.77,0,1.47,0,2.21,0
	c0-0.22,0-0.39,0-0.56c0-1.08-0.01-2.16,0.01-3.24c0.01-0.7,0.53-1.22,1.15-1.2c0.57,0.02,0.91,0.44,0.93,1.17
	c0.01,0.23,0,0.46,0,0.69C12.19,12.17,12.19,13.21,12.19,14.27z M4.64,14.27c0.77,0,1.47,0,2.17,0c0-2.2,0-4.35,0-6.53
	c-0.74,0-1.44,0-2.17,0C4.64,9.92,4.64,12.07,4.64,14.27z M6.87,5.74c0-0.67-0.48-1.13-1.18-1.13c-0.71,0-1.26,0.51-1.24,1.16
	c0.01,0.63,0.56,1.12,1.23,1.11C6.39,6.86,6.87,6.4,6.87,5.74z"/>
</svg>
