<?xml version="1.0" encoding="utf-8"?>
<!-- Generator: Adobe Illustrator 25.4.1, SVG Export Plug-In . SVG Version: 6.00 Build 0)  -->
<svg version="1.1" id="Layer_1" xmlns="http://www.w3.org/2000/svg" xmlns:xlink="http://www.w3.org/1999/xlink" x="0px" y="0px"
	 viewBox="0 0 19 19" style="enable-background:new 0 0 19 19;" xml:space="preserve">
<style type="text/css">
	.st0{fill:#E5E9EF;}
</style>
<g>
	<path class="st0" d="M4.08,14.13c0.11-0.16,0.14-0.32,0.09-0.51c-0.03-0.11-0.03-0.24-0.03-0.36c-0.01-0.5,0.1-0.65,0.56-0.84
		c0.56-0.23,0.8-0.57,0.8-1.17c0-0.47,0.16-0.89,0.34-1.31c0.3-0.69,0.72-1.3,1.18-1.88c0.45-0.57,0.68-1.2,0.65-1.93
		C7.66,5.67,7.66,5.23,7.67,4.78C7.68,3.6,8.41,2.9,9.59,2.86c1.07-0.03,1.71,0.5,1.94,1.45c0.07,0.28,0.1,0.57,0.12,0.85
		c0.02,0.25,0.02,0.5,0,0.76c-0.04,0.71,0.22,1.3,0.66,1.85c0.38,0.48,0.74,0.98,1.06,1.49c0.45,0.73,0.62,1.53,0.48,2.38
		c-0.02,0.14,0.01,0.24,0.09,0.36c0.12,0.17,0.2,0.38,0.29,0.57c0.11,0.23,0.2,0.49,0.34,0.7c0.37,0.53,0.31,0.87-0.28,1.15
		c-0.51,0.25-0.97,0.55-1.37,0.97c-0.19,0.2-0.47,0.32-0.71,0.47c-0.24,0-0.48,0-0.72,0c-0.15-0.11-0.36-0.19-0.45-0.35
		c-0.18-0.34-0.48-0.39-0.8-0.42c-0.2-0.02-0.41-0.08-0.6-0.07c-0.43,0.03-0.85,0.09-1.28,0.16c-0.08,0.01-0.16,0.1-0.22,0.17
		c-0.22,0.26-0.5,0.36-0.82,0.37c-0.35,0.02-0.68-0.08-1.01-0.21c-0.33-0.13-0.68-0.22-1.03-0.3c-0.42-0.1-0.9-0.05-1.21-0.44
		C4.08,14.56,4.08,14.35,4.08,14.13z M6.49,10.14c-0.29,0.77-0.11,1.35,0.56,1.81c0.17,0.12,0.35,0.22,0.49,0.36
		c0.22,0.22,0.43,0.45,0.59,0.71c0.16,0.26,0.08,0.43-0.18,0.6c-0.04,0.03-0.09,0.03-0.11,0.04c0.19,0.36,0.39,0.59,0.72,0.66
		c0.34,0.07,0.7,0.19,1.02,0.13c1.2-0.22,1.56-0.4,1.55-1.55c0-0.01,0-0.02,0-0.04c0.07-0.5,0.08-1.02,0.56-1.35
		c0.06-0.04,0.09-0.14,0.13-0.21c0.14-0.24,0.3-0.33,0.57-0.26c0.23,0.06,0.45,0.15,0.67,0.22c-0.03-0.06-0.07-0.1-0.12-0.12
		c-0.23-0.08-0.3-0.22-0.25-0.47c0.03-0.17-0.02-0.37-0.04-0.55c-0.07,0.18-0.08,0.36-0.13,0.53c-0.02,0.09-0.1,0.21-0.17,0.23
		c-0.15,0.04-0.23-0.09-0.27-0.22c-0.1-0.3-0.18-0.6-0.3-0.89c-0.38-0.92-0.76-1.84-1.15-2.75c-0.01-0.02-0.04-0.03-0.06-0.04
		c-0.32,0.16-0.63,0.34-0.96,0.48c-0.4,0.18-0.79,0.19-1.14-0.13C8.39,7.26,8.28,7.2,8.19,7.13C8.06,7.56,7.96,7.96,7.82,8.34
		C7.69,8.72,7.52,9.1,7.35,9.47c-0.27,0.57-0.47,1.15-0.52,1.79c0,0.05-0.04,0.09-0.07,0.15C6.47,11,6.42,10.73,6.49,10.14z
		 M7.25,15.53c0.6-0.01,1.11-0.57,0.72-1.19c-0.08-0.12-0.14-0.26-0.23-0.36c-0.46-0.52-0.78-1.12-1.11-1.72
		c-0.33-0.59-0.76-0.63-1.17-0.09c-0.17,0.22-0.37,0.37-0.62,0.46c-0.41,0.15-0.51,0.28-0.45,0.7c0.04,0.34,0.04,0.66-0.05,0.99
		c-0.08,0.3,0.02,0.45,0.32,0.54c0.1,0.03,0.21,0.05,0.32,0.06c0.49,0.05,0.96,0.15,1.42,0.36C6.66,15.39,6.96,15.45,7.25,15.53z
		 M11.75,11.8c-0.24,0.3-0.26,0.38-0.31,0.75c-0.07,0.49-0.15,0.97-0.24,1.45c-0.04,0.22-0.11,0.44-0.15,0.67
		c-0.1,0.6,0.38,1.06,0.98,0.94c0.31-0.07,0.59-0.22,0.8-0.46c0.32-0.37,0.72-0.63,1.16-0.83c0.07-0.03,0.13-0.06,0.19-0.1
		c0.44-0.24,0.49-0.42,0.19-0.82c-0.19-0.25-0.31-0.51-0.37-0.81c-0.02-0.09-0.05-0.19-0.1-0.27c-0.15-0.25-0.46-0.31-0.71-0.16
		c-0.14,0.09-0.28,0.19-0.44,0.25c-0.4,0.16-0.67,0.05-0.86-0.33C11.84,12.01,11.8,11.92,11.75,11.8z M9.09,5.75
		C8.96,5.8,8.8,5.83,8.68,5.92C8.49,6.04,8.31,6.19,8.14,6.34C7.94,6.5,7.93,6.62,8.12,6.81c0.14,0.14,0.32,0.25,0.46,0.39
		c0.22,0.22,0.5,0.28,0.76,0.18c0.37-0.14,0.73-0.32,1.05-0.53c0.3-0.2,0.25-0.47-0.09-0.63c-0.27-0.13-0.54-0.25-0.82-0.37
		C9.37,5.8,9.24,5.79,9.09,5.75z M10.28,5.99c0.03,0.02,0.06,0.04,0.09,0.06c0.06-0.08,0.16-0.16,0.17-0.24
		c0.03-0.19,0.03-0.38,0-0.57c-0.04-0.27-0.33-0.52-0.57-0.51c-0.25,0-0.51,0.25-0.54,0.54C9.41,5.4,9.36,5.57,9.57,5.66
		c0.04-0.08,0.07-0.14,0.1-0.2c0.07-0.15,0.15-0.29,0.34-0.26c0.2,0.03,0.25,0.21,0.27,0.38C10.29,5.71,10.28,5.85,10.28,5.99z
		 M8.21,5.98c0-0.19-0.03-0.38,0.01-0.56c0.04-0.18,0.21-0.2,0.32-0.06c0.06,0.08,0.11,0.18,0.16,0.28
		c0.14-0.22,0.12-0.44-0.03-0.62C8.49,4.79,8.24,4.8,8.1,5.06C7.92,5.38,7.95,5.7,8.21,5.98z"/>
	<path class="st0" d="M8.12,6.52C8.44,6.76,8.75,7.1,9.19,6.97c0.38-0.11,0.73-0.32,1.07-0.48c-0.04,0.22-0.65,0.59-1.12,0.65
		C8.76,7.18,8.26,6.9,8.12,6.52z"/>
</g>
</svg>
