<?xml version="1.0" encoding="utf-8"?>
<!-- Generator: Adobe Illustrator 25.4.1, SVG Export Plug-In . SVG Version: 6.00 Build 0)  -->
<svg version="1.1" id="Layer_1" xmlns="http://www.w3.org/2000/svg" xmlns:xlink="http://www.w3.org/1999/xlink" x="0px" y="0px"
	 viewBox="0 0 19 19" style="enable-background:new 0 0 19 19;" xml:space="preserve">
<style type="text/css">
	.st0{fill:#E5E9EF;}
</style>
<path class="st0" d="M14.85,6.68c0-0.01,0-0.02,0-0.03c-0.03,0.01-0.02-0.02-0.02-0.03c-0.03-0.1-0.06-0.19-0.12-0.27l0,0
	c-0.08-0.15-0.2-0.27-0.34-0.36c-1.25-0.72-2.5-1.44-3.75-2.16c-0.2-0.11-0.4-0.23-0.6-0.34c-0.09-0.06-0.19-0.09-0.3-0.11
	c0,0-0.01,0-0.01-0.01c-0.01-0.01,0-0.01,0-0.01c-0.02,0-0.04,0-0.06,0c-0.01,0.02-0.02,0.01-0.02,0c-0.08,0-0.16,0-0.23,0
	c-0.01,0.01-0.02,0.02-0.02,0c-0.02,0-0.04,0-0.06,0C9.33,3.37,9.31,3.37,9.3,3.37C9.18,3.39,9.08,3.44,8.98,3.5
	c-1.43,0.83-2.86,1.65-4.3,2.48C4.43,6.12,4.28,6.34,4.2,6.61c0,0.01,0,0.03-0.02,0.04c0,0,0,0,0,0c0,0,0,0,0,0
	c0,0.02,0,0.03,0,0.05c0.02,0.01,0.01,0.02,0,0.02c0,1.75,0,3.5,0,5.26c0.01,0.01,0.02,0.02,0,0.02c0,0.02,0,0.03,0,0.05
	c0.03-0.01,0.02,0.02,0.02,0.03c0.03,0.1,0.06,0.19,0.11,0.27c0.08,0.15,0.2,0.27,0.35,0.36c1.46,0.84,2.92,1.68,4.38,2.53
	c0.08,0.04,0.16,0.07,0.25,0.09c0.01,0,0.04,0,0.04,0.02c0.01,0,0.02,0,0.03,0c0,0,0-0.01,0-0.01c0.01,0,0.01,0,0.01,0.01
	c0.09,0,0.19,0,0.28,0c0-0.01,0-0.01,0.01-0.01c0,0,0,0,0,0.01c0.01,0,0.02,0,0.03,0c0-0.02,0.02-0.02,0.03-0.02
	c0.1-0.02,0.2-0.06,0.28-0.11c1.45-0.84,2.9-1.67,4.35-2.51c0.15-0.09,0.27-0.22,0.35-0.37c0.05-0.08,0.08-0.17,0.11-0.26
	c0-0.02,0.01-0.02,0.02-0.03c0-0.01,0-0.02,0-0.03c-0.01,0-0.01,0-0.01,0c0,0,0.01,0,0.01-0.01c0-1.77,0-3.53,0-5.3
	C14.85,6.69,14.84,6.69,14.85,6.68C14.84,6.68,14.85,6.68,14.85,6.68z M12.6,11.13c-0.54,0.9-1.32,1.48-2.34,1.69
	c-1.51,0.32-3-0.34-3.8-1.66c-0.01-0.01-0.01-0.02-0.02-0.03h0c-0.18-0.31-0.31-0.64-0.39-0.99C5.8,8.96,6.06,7.9,6.86,6.99
	c0.53-0.61,1.21-1,2.01-1.14c1.13-0.2,2.13,0.09,3,0.83c0.3,0.25,0.54,0.55,0.73,0.89c0.31-0.18,0.62-0.36,0.93-0.53
	c-0.31,0.18-0.62,0.36-0.93,0.53c-0.31,0.18-0.61,0.36-0.92,0.53c-0.2,0.12-0.41,0.23-0.61,0.35c-0.5,0.29-1,0.58-1.5,0.87
	c0.5-0.29,1-0.58,1.5-0.87c-0.02-0.01-0.02-0.02-0.03-0.04c-0.4-0.59-0.95-0.88-1.67-0.84C8.92,7.61,8.54,7.79,8.24,8.11
	c-0.4,0.43-0.56,0.93-0.48,1.52c0.03,0.21,0.1,0.42,0.22,0.6c0.01,0.02,0.02,0.04,0.03,0.06c0.39,0.62,1.1,0.94,1.83,0.8
	c0.53-0.1,0.94-0.39,1.21-0.85c0.02,0,0.03,0.01,0.04,0.01c0.5,0.29,0.99,0.57,1.49,0.86C12.59,11.12,12.59,11.12,12.6,11.13
	c0.02,0.01,0.04,0.02,0.06,0.03C12.64,11.14,12.62,11.13,12.6,11.13z M9.53,9.34c0,0-0.01,0-0.01,0.01
	C9.52,9.35,9.52,9.35,9.53,9.34L9.53,9.34z M13.03,9.54c-0.05,0-0.1,0-0.16,0c-0.05,0-0.1,0-0.15,0c-0.04,0-0.05,0.01-0.05,0.05
	c0,0.1,0,0.2,0,0.3c0,0.03-0.01,0.05-0.04,0.05c-0.1,0-0.21,0-0.31,0c-0.03,0-0.04-0.01-0.04-0.04c0-0.1,0-0.2,0-0.3
	c0-0.05-0.02-0.06-0.06-0.06c-0.1,0-0.2,0-0.3,0c-0.03,0-0.04-0.01-0.04-0.04c0-0.1,0-0.21,0-0.31c0-0.03,0.01-0.04,0.04-0.04
	c0.1,0,0.2,0,0.3,0c0.05,0,0.06-0.02,0.06-0.06c0-0.1,0-0.2,0-0.3c0-0.03,0.01-0.04,0.04-0.04c0.11,0,0.21,0,0.32,0
	c0.03,0,0.04,0.01,0.04,0.04c0,0.1,0,0.2,0,0.3c0,0.05,0.02,0.06,0.06,0.06c0.1,0,0.19,0,0.29,0c0.03,0,0.04,0.01,0.04,0.04
	c0,0.1,0,0.21,0,0.31C13.08,9.54,13.06,9.55,13.03,9.54z M14.51,9.54c-0.1,0-0.2,0-0.3,0c-0.04,0-0.05,0.01-0.05,0.05
	c0,0.1,0,0.2,0,0.3c0,0.04-0.01,0.05-0.05,0.05c-0.1,0-0.2,0-0.3,0c-0.04,0-0.05-0.01-0.05-0.05c0-0.1,0-0.2,0-0.3
	c0-0.04-0.01-0.05-0.05-0.05c-0.1,0-0.21,0-0.31,0c-0.03,0-0.04-0.01-0.04-0.04c0-0.1,0-0.21,0-0.31c0-0.03,0.01-0.04,0.04-0.04
	c0.1,0,0.21,0,0.31,0c0.04,0,0.05-0.01,0.05-0.05c0-0.1,0-0.21,0-0.31c0-0.03,0.01-0.04,0.04-0.04c0.1,0,0.21,0,0.31,0
	c0.04,0,0.04,0.01,0.04,0.05c0,0.05,0,0.1,0,0.16c0,0.05,0,0.1,0,0.15c0,0.03,0.01,0.04,0.04,0.04c0.1,0,0.21,0,0.31,0
	c0.03,0,0.05,0.01,0.05,0.04c0,0.1,0,0.21,0,0.31C14.56,9.54,14.55,9.54,14.51,9.54z"/>
</svg>
