<?xml version="1.0" encoding="utf-8"?>
<!-- Generator: Adobe Illustrator 25.4.1, SVG Export Plug-In . SVG Version: 6.00 Build 0)  -->
<svg version="1.1" id="Layer_1" xmlns="http://www.w3.org/2000/svg" xmlns:xlink="http://www.w3.org/1999/xlink" x="0px" y="0px"
	 viewBox="0 0 19 19" style="enable-background:new 0 0 19 19;" xml:space="preserve">
<style type="text/css">
	.st0{fill:#E5E9EF;}
</style>
<g>
	<path class="st0" d="M5.41,7.92C5.5,7.94,5.58,7.96,5.67,7.97C6.1,8.03,6.43,8.26,6.56,8.66c0.19,0.58,0.29,1.18-0.2,1.69
		c-0.2,0.21-0.44,0.29-0.73,0.29c-0.11,0-0.21,0-0.33,0c0.33,0.48,2.15,1,3.52,0.96c1.24-0.04,2.48-0.14,3.56-0.89
		c-0.17,0.32-0.33,0.66-0.69,0.8c-0.58,0.23-1.15,0.51-1.75,0.62c-1.91,0.34-3.8,0.27-5.58-0.65c-0.4-0.21-0.79-0.49-1.1-0.82
		c-0.88-0.94-0.77-1.78,0-2.69c0.5-0.6,1.16-0.97,1.88-1.23c1.33-0.49,2.71-0.54,4.11-0.37c1.04,0.12,2,0.46,2.86,1.05
		c0.11,0.08,0.18,0.21,0.27,0.32c-0.13-0.03-0.27-0.04-0.38-0.1c-0.75-0.37-1.54-0.56-2.36-0.64C8.47,6.89,7.33,7.08,6.22,7.46
		c-0.28,0.1-0.55,0.25-0.83,0.37C5.4,7.87,5.41,7.89,5.41,7.92z M5.45,10.31c0.48,0,0.84-0.38,0.9-0.97
		c0.04-0.4-0.33-0.94-0.69-1.01c-0.07-0.01-0.14,0-0.21,0.01c-0.42,0.1-0.75,0.49-0.79,0.92C4.6,9.77,5.02,10.31,5.45,10.31z"/>
	<path class="st0" d="M13.53,9.6c-0.21-0.02-0.39-0.04-0.58-0.05c0.04-0.27,0.17-0.34,0.4-0.33C13.54,9.23,13.73,9.2,14,9.19
		c0,0.39,0.01,0.8-0.01,1.21c0,0.04-0.12,0.1-0.2,0.11c-0.16,0.03-0.33,0.02-0.48,0.07c-0.6,0.21-1.48-0.25-1.56-0.89
		c-0.04-0.34,0.01-0.71,0.11-1.03c0.15-0.44,0.53-0.65,0.99-0.68c0.41-0.03,0.78,0.08,0.98,0.48c0.05,0.1,0.04,0.24,0.05,0.37
		c-0.17-0.03-0.39,0.01-0.49-0.09c-0.32-0.31-0.6-0.33-0.9,0.01c-0.41,0.47-0.25,1.16,0.3,1.37C13.17,10.25,13.53,10,13.53,9.6z"/>
	<path class="st0" d="M7.06,8.98c0.11,0,0.23,0.03,0.33,0c0.48-0.16,0.83,0,0.94,0.5c0.05,0.25,0.05,0.52,0,0.77
		c-0.05,0.22-0.25,0.37-0.5,0.37c-0.08,0-0.16,0-0.24-0.02c-0.3-0.08-0.39,0.08-0.4,0.34c0,0.13-0.03,0.22-0.2,0.21
		c-0.16-0.02-0.19-0.09-0.18-0.23c0.04-0.57,0.07-1.15,0.11-1.72C6.91,9.09,6.96,9.01,7,8.92C7.02,8.94,7.04,8.96,7.06,8.98z
		 M8.03,9.86c0-0.3-0.16-0.6-0.34-0.61C7.47,9.23,7.21,9.58,7.2,9.87c-0.01,0.23,0.2,0.4,0.48,0.41C7.87,10.28,8.03,10.09,8.03,9.86
		z"/>
	<path class="st0" d="M14.43,10.48c0-0.41,0-0.77,0-1.12c0-0.27,0.02-0.54,0-0.81c-0.03-0.31,0.05-0.51,0.44-0.53
		c0.02,0.13,0.05,0.27,0.06,0.41c0.01,0.43,0.01,0.87,0,1.3c0,0.2,0.07,0.3,0.28,0.31c0.28,0.01,0.56,0.04,0.87,0.06
		c0.13,0.33,0.07,0.43-0.31,0.43c-0.37,0-0.74,0-1.11-0.01C14.56,10.52,14.46,10.49,14.43,10.48z"/>
	<path class="st0" d="M8.89,10.02c0.33,0.37,0.53,0.37,0.78,0.07C9.73,10.02,9.81,9.98,9.9,9.9c0.04,0.47-0.03,0.63-0.26,0.7
		c-0.39,0.11-0.89-0.07-1.05-0.38c-0.22-0.42-0.02-1.06,0.4-1.27c0.24-0.12,0.48-0.12,0.68,0.06C9.89,9.2,10,9.45,9.98,9.74
		c0,0.05-0.12,0.13-0.19,0.13c-0.17,0.02-0.34,0-0.51,0.02C9.16,9.91,9.05,9.97,8.89,10.02z M8.93,9.61c0.17,0,0.31,0,0.46,0
		c0.04,0,0.09,0.01,0.13-0.01c0.05-0.02,0.11-0.05,0.12-0.08c0.01-0.04-0.03-0.1-0.06-0.13C9.36,9.16,9.1,9.24,8.93,9.61z"/>
	<path class="st0" d="M10.45,10.56c-0.14-0.01-0.24-0.03-0.38-0.04c0.18-0.54-0.03-1.1,0.21-1.67c0.09,0.11,0.13,0.17,0.18,0.24
		c0.07-0.04,0.14-0.08,0.21-0.12c0.37-0.2,0.74-0.03,0.78,0.38c0.03,0.39,0.01,0.79,0.01,1.22c-0.12-0.01-0.22-0.02-0.31-0.03
		c0-0.32,0.02-0.62-0.01-0.92c-0.01-0.12-0.13-0.23-0.2-0.35c-0.13,0.08-0.3,0.14-0.38,0.26c-0.08,0.12-0.1,0.3-0.11,0.46
		C10.43,10.16,10.45,10.34,10.45,10.56z"/>
	<path class="st0" d="M16.19,10.17c0.19,0.05,0.32,0.08,0.46,0.12c-0.01,0.03-0.01,0.07-0.02,0.1c-0.07,0-0.14,0-0.22,0
		c-0.04,0-0.08,0-0.16-0.01C16.24,10.36,16.22,10.29,16.19,10.17z"/>
</g>
</svg>
