<?xml version="1.0" encoding="utf-8"?>
<!-- Generator: Adobe Illustrator 25.4.1, SVG Export Plug-In . SVG Version: 6.00 Build 0)  -->
<svg version="1.1" id="Layer_1" xmlns="http://www.w3.org/2000/svg" xmlns:xlink="http://www.w3.org/1999/xlink" x="0px" y="0px"
	 viewBox="0 0 19 19" style="enable-background:new 0 0 19 19;" xml:space="preserve">
<style type="text/css">
	.st0{fill:#E8E8E8;}
</style>
<g>
	<path class="st0" d="M10.74,3.35c0.46,0.67,0.55,1.54-0.06,2.26c-0.25,0.3-0.55,0.55-0.84,0.81C9.57,6.66,9.29,6.89,9.03,7.13
		C8.82,7.32,8.74,7.56,8.78,7.85C8.86,8.44,9.05,9,9.3,9.53C9.31,9.57,9.33,9.6,9.35,9.64c0.03,0.07,0.08,0.16,0,0.21
		C9.3,9.87,9.2,9.84,9.15,9.8C8.69,9.42,8.29,8.98,8.03,8.43C7.75,7.85,7.78,7.3,8.16,6.77c0.3-0.43,0.69-0.75,1.1-1.05
		c0.3-0.22,0.6-0.44,0.88-0.69c0.32-0.29,0.42-0.69,0.45-1.11c0.01-0.13-0.01-0.27-0.01-0.4c0-0.06,0.02-0.11,0.03-0.17
		C10.66,3.35,10.7,3.35,10.74,3.35z"/>
	<path class="st0" d="M9.12,15.35c-0.32-0.03-0.65-0.05-0.97-0.09c-0.4-0.05-0.8-0.12-1.19-0.18c-0.03-0.01-0.08-0.01-0.1-0.03
		c-0.03-0.03-0.06-0.07-0.06-0.1c0-0.03,0.04-0.07,0.08-0.09c0.03-0.02,0.07-0.01,0.1-0.01c0.68,0.01,1.35,0.03,2.03,0.03
		c0.68,0,1.37-0.01,2.05-0.03c0.77-0.02,1.52-0.15,2.21-0.5c0.14-0.07,0.26-0.16,0.39-0.24c0.06-0.04,0.12-0.1,0.19-0.04
		c0.07,0.06,0.05,0.13,0.02,0.2c-0.11,0.26-0.31,0.44-0.55,0.57c-0.36,0.2-0.76,0.3-1.17,0.35c-0.45,0.06-0.89,0.1-1.34,0.14
		c-0.03,0-0.06,0.01-0.09,0.02C10.18,15.35,9.65,15.35,9.12,15.35z"/>
	<path class="st0" d="M6.04,13.85c0.06,0.02,0.11,0.05,0.17,0.06c0.42,0.07,0.84,0.17,1.27,0.2c0.59,0.05,1.18,0.08,1.77,0.07
		c1.06-0.01,2.11-0.1,3.14-0.32c0.19-0.04,0.38-0.1,0.56-0.16c0.09-0.03,0.14-0.08,0.12-0.18c-0.01-0.04,0.02-0.1,0.05-0.11
		c0.04-0.01,0.1,0,0.14,0.02c0.2,0.15,0.22,0.41,0.01,0.57c-0.13,0.1-0.29,0.18-0.44,0.24c-0.55,0.21-1.12,0.31-1.7,0.39
		c-1.05,0.14-2.1,0.16-3.16,0.13c-0.73-0.02-1.47-0.05-2.18-0.24c-0.16-0.04-0.32-0.12-0.47-0.2c-0.07-0.04-0.13-0.11-0.18-0.18
		c-0.11-0.18-0.07-0.4,0.12-0.5c0.16-0.09,0.34-0.16,0.52-0.19c0.36-0.06,0.73-0.09,1.09-0.13c0.07-0.01,0.14,0.01,0.15,0.09
		c0.01,0.08-0.05,0.11-0.12,0.13c-0.25,0.07-0.5,0.14-0.74,0.21c-0.05,0.01-0.09,0.04-0.13,0.07C6.04,13.82,6.04,13.83,6.04,13.85z"
		/>
	<path class="st0" d="M7.14,10.4c0.15,0.02,0.3,0.05,0.46,0.06c0.9,0.06,1.79,0.06,2.69-0.01c0.5-0.04,1-0.13,1.5-0.19
		c0.07-0.01,0.15-0.03,0.18,0.05c0.04,0.09-0.03,0.14-0.09,0.18c-0.33,0.23-0.71,0.36-1.1,0.46c-0.66,0.17-1.33,0.23-2.01,0.24
		c-0.61,0.01-1.22,0.01-1.82-0.12c-0.24-0.05-0.47-0.14-0.69-0.25c-0.33-0.18-0.32-0.54,0.01-0.7C6.51,10,6.76,9.93,7.02,9.89
		C7.31,9.84,7.61,9.84,7.9,9.81c0.04,0,0.08-0.01,0.12,0c0.05,0.02,0.09,0.07,0.14,0.1c-0.04,0.04-0.07,0.1-0.11,0.12
		c-0.17,0.06-0.35,0.09-0.53,0.15c-0.13,0.04-0.25,0.1-0.38,0.15C7.14,10.36,7.14,10.38,7.14,10.4z"/>
	<path class="st0" d="M9.95,10.21c0.02-0.04,0.03-0.07,0.04-0.1c0.03-0.08,0.06-0.15,0.08-0.23c0.09-0.28,0.08-0.53-0.14-0.76
		c-0.25-0.27-0.42-0.6-0.49-0.97C9.35,7.69,9.47,7.31,9.8,6.98c0.54-0.53,1.19-0.86,1.88-1.13c0.04-0.02,0.1,0.02,0.16,0.03
		c-0.02,0.05-0.02,0.13-0.06,0.16c-0.31,0.28-0.64,0.55-0.95,0.83C10.69,7,10.57,7.14,10.46,7.3c-0.16,0.24-0.16,0.49-0.01,0.74
		c0.13,0.21,0.26,0.42,0.36,0.64c0.16,0.35,0.1,0.7-0.11,1.01c-0.15,0.23-0.33,0.45-0.57,0.6c-0.04,0.02-0.1,0.02-0.14,0.01
		C9.98,10.28,9.96,10.23,9.95,10.21z"/>
	<path class="st0" d="M7.99,12.71c0.22,0.03,0.43,0.07,0.64,0.09c0.64,0.08,1.27,0.02,1.9-0.11c0.16-0.03,0.3-0.02,0.43,0.08
		c0.13,0.09,0.27,0.16,0.4,0.25c0.04,0.03,0.1,0.09,0.09,0.13c-0.01,0.05-0.07,0.1-0.12,0.12c-0.47,0.2-0.96,0.29-1.46,0.34
		c-0.63,0.06-1.26,0.01-1.87-0.12c-0.19-0.04-0.37-0.12-0.54-0.21c-0.13-0.07-0.22-0.19-0.23-0.35c-0.01-0.16,0.06-0.29,0.21-0.35
		c0.12-0.05,0.26-0.09,0.39-0.11C7.99,12.46,8.02,12.51,7.99,12.71z"/>
	<path class="st0" d="M7.53,11.52c0.08,0.03,0.12,0.05,0.17,0.06c0.21,0.03,0.42,0.07,0.64,0.08c0.86,0.04,1.71-0.03,2.55-0.22
		c0.13-0.03,0.23-0.02,0.34,0.07c0.1,0.08,0.22,0.15,0.32,0.23c0.04,0.03,0.08,0.1,0.08,0.14c-0.01,0.04-0.07,0.09-0.12,0.1
		c-0.35,0.08-0.71,0.16-1.07,0.21c-0.53,0.07-1.05,0.14-1.58,0.16c-0.53,0.02-1.07-0.04-1.57-0.25c-0.11-0.05-0.22-0.11-0.31-0.2
		c-0.13-0.12-0.12-0.29,0.01-0.41c0.17-0.16,0.39-0.22,0.62-0.26c0.03-0.01,0.1,0.03,0.11,0.06c0.01,0.03-0.01,0.09-0.04,0.12
		C7.64,11.44,7.59,11.47,7.53,11.52z"/>
	<path class="st0" d="M14,10.61c0,0.42-0.16,0.68-0.4,0.89c-0.36,0.31-0.79,0.48-1.23,0.62c-0.09,0.03-0.17,0.06-0.26,0.06
		c-0.05,0-0.12-0.02-0.14-0.06c-0.02-0.02,0.01-0.11,0.05-0.14c0.15-0.13,0.32-0.23,0.47-0.37c0.21-0.2,0.41-0.4,0.58-0.62
		c0.26-0.33,0.16-0.63-0.23-0.79c-0.15-0.06-0.32-0.08-0.49-0.12c-0.05-0.01-0.1-0.01-0.15-0.03c-0.08-0.03-0.1-0.11-0.04-0.18
		c0.01-0.01,0.03-0.03,0.05-0.03c0.32-0.14,0.66-0.25,1.02-0.19c0.3,0.05,0.52,0.22,0.64,0.5C13.94,10.34,13.97,10.52,14,10.61z"/>
</g>
</svg>
