<?xml version="1.0" encoding="utf-8"?>
<!-- Generator: Adobe Illustrator 25.4.1, SVG Export Plug-In . SVG Version: 6.00 Build 0)  -->
<svg version="1.1" id="Layer_1" xmlns="http://www.w3.org/2000/svg" xmlns:xlink="http://www.w3.org/1999/xlink" x="0px" y="0px"
	 viewBox="0 0 19 19" style="enable-background:new 0 0 19 19;" xml:space="preserve">
<style type="text/css">
	.st0{fill:#555555;}
</style>
<g>
	<path class="st0" d="M16.65,4.9c0,3.15,0,6.29,0,9.44c-0.31,0.12-0.62,0.35-0.93,0.35c-4.14,0.02-8.28,0.02-12.42,0
		c-0.31,0-0.62-0.23-0.92-0.35c0-3.15,0-6.29,0-9.44c2.18,1.6,4.36,3.2,6.53,4.81c0.43,0.32,0.78,0.32,1.21,0
		C12.29,8.1,14.47,6.5,16.65,4.9z"/>
	<path class="st0" d="M3.48,3.98c4.05,0,8.04,0,12.21,0c-0.84,0.61-1.56,1.14-2.28,1.66c-1.19,0.87-2.37,1.75-3.57,2.6
		C9.7,8.35,9.38,8.38,9.25,8.29c-1.91-1.37-3.8-2.77-5.7-4.17C3.53,4.1,3.52,4.06,3.48,3.98z"/>
</g>
</svg>
