<?xml version="1.0" encoding="utf-8"?>
<!-- Generator: Adobe Illustrator 25.4.1, SVG Export Plug-In . SVG Version: 6.00 Build 0)  -->
<svg version="1.1" id="Layer_1" xmlns="http://www.w3.org/2000/svg" xmlns:xlink="http://www.w3.org/1999/xlink" x="0px" y="0px"
	 viewBox="0 0 19 19" style="enable-background:new 0 0 19 19;" xml:space="preserve">
<style type="text/css">
	.st0{fill:#E5E9EF;}
</style>
<g>
	<path class="st0" d="M22.65,132.23c0.03,0,0.06,0.01,0.09,0.01c0.73,0.02,1.45,0.11,2.16,0.28c0.52,0.12,1.02,0.29,1.49,0.54
		c0.33,0.17,0.64,0.38,0.89,0.66c0.14,0.16,0.25,0.33,0.31,0.54c0.06,0.25,0.02,0.49-0.11,0.71c-0.18,0.32-0.46,0.54-0.76,0.74
		c-0.46,0.3-0.96,0.49-1.48,0.64c-0.45,0.13-0.91,0.22-1.38,0.28c-0.21,0.03-0.42,0.05-0.63,0.06c-0.43,0.02-0.86,0.03-1.29,0.02
		c-0.37-0.01-0.73-0.05-1.1-0.09c-0.45-0.05-0.89-0.14-1.32-0.26c-0.34-0.1-0.67-0.21-0.99-0.36c-0.28-0.13-0.56-0.29-0.8-0.48
		c-0.22-0.18-0.42-0.38-0.54-0.64c-0.17-0.36-0.09-0.7,0.13-1.01c0.22-0.31,0.51-0.53,0.84-0.71c0.68-0.39,1.42-0.61,2.19-0.75
		c0.43-0.08,0.86-0.13,1.29-0.15c0.11-0.01,0.23-0.01,0.34-0.01c0.02,0,0.04-0.01,0.06-0.01C22.25,132.23,22.45,132.23,22.65,132.23
		z"/>
	<path class="st0" d="M17.11,135.66c0.11,0.09,0.21,0.18,0.31,0.26c0.28,0.22,0.59,0.4,0.92,0.55c0.4,0.18,0.81,0.32,1.24,0.43
		c0.49,0.13,0.98,0.21,1.48,0.27c0.58,0.06,1.17,0.08,1.76,0.06c0.8-0.03,1.58-0.13,2.35-0.34c0.55-0.15,1.08-0.34,1.57-0.62
		c0.3-0.17,0.58-0.36,0.83-0.6c0.01-0.01,0.01-0.01,0.02-0.02c0,0.44-0.01,0.87,0,1.3c0.01,0.3-0.1,0.54-0.29,0.75
		c-0.24,0.29-0.54,0.49-0.87,0.67c-0.59,0.31-1.21,0.51-1.86,0.63c-0.32,0.06-0.65,0.11-0.98,0.15c-0.48,0.06-0.97,0.08-1.46,0.06
		c-0.42-0.02-0.85-0.05-1.27-0.09c-0.57-0.06-1.13-0.18-1.68-0.36c-0.52-0.17-1.03-0.39-1.46-0.74c-0.22-0.18-0.43-0.38-0.54-0.64
		c-0.05-0.11-0.08-0.24-0.09-0.36c-0.01-0.44,0-0.88,0-1.32C17.11,135.7,17.11,135.68,17.11,135.66z"/>
	<path class="st0" d="M17.11,138.22c0.22,0.21,0.44,0.38,0.69,0.52c0.37,0.22,0.77,0.38,1.17,0.52c0.46,0.15,0.93,0.26,1.41,0.33
		c0.34,0.05,0.67,0.09,1.01,0.11c0.42,0.03,0.85,0.04,1.27,0.04c0.68-0.01,1.35-0.07,2.02-0.2c0.68-0.13,1.35-0.32,1.98-0.64
		c0.33-0.17,0.64-0.37,0.91-0.63c0.01-0.01,0.02-0.01,0.04-0.03c0,0.04,0,0.06,0,0.08c0,0.38-0.01,0.77,0,1.15
		c0.01,0.28-0.09,0.52-0.27,0.73c-0.25,0.3-0.56,0.52-0.9,0.7c-0.62,0.33-1.29,0.53-1.97,0.65c-0.41,0.07-0.82,0.13-1.23,0.15
		c-0.47,0.03-0.94,0.04-1.41,0.02c-0.72-0.02-1.42-0.12-2.12-0.3c-0.44-0.11-0.87-0.26-1.28-0.46c-0.33-0.16-0.64-0.35-0.9-0.61
		c-0.25-0.25-0.42-0.55-0.41-0.93c0.01-0.37,0-0.74,0-1.12C17.11,138.29,17.11,138.26,17.11,138.22z"/>
	<path class="st0" d="M17.11,140.73c0.26,0.25,0.54,0.45,0.84,0.61c0.7,0.37,1.45,0.59,2.23,0.72c0.36,0.06,0.73,0.1,1.1,0.14
		c0.53,0.06,1.07,0.06,1.61,0.04c0.84-0.03,1.67-0.13,2.48-0.35c0.48-0.13,0.95-0.3,1.39-0.53c0.29-0.16,0.57-0.34,0.8-0.57
		c0.01-0.01,0.02-0.01,0.03-0.03c0,0.15,0,0.3,0,0.44c0,0.26-0.01,0.51,0,0.77c0.01,0.29-0.09,0.53-0.27,0.75
		c-0.24,0.3-0.55,0.51-0.88,0.68c-0.65,0.35-1.34,0.55-2.06,0.68c-0.43,0.08-0.86,0.12-1.29,0.15c-0.48,0.03-0.95,0.03-1.43,0.01
		c-0.69-0.04-1.37-0.13-2.04-0.31c-0.58-0.15-1.14-0.36-1.65-0.69c-0.28-0.18-0.53-0.39-0.71-0.68c-0.11-0.17-0.17-0.36-0.16-0.56
		c0-0.39,0-0.78,0-1.16C17.11,140.79,17.11,140.77,17.11,140.73z"/>
</g>
<g>
	<path class="st0" d="M9.83,3.34c0.03,0,0.06,0.01,0.09,0.01c0.73,0.02,1.45,0.11,2.16,0.28c0.52,0.12,1.02,0.29,1.49,0.54
		c0.33,0.17,0.64,0.38,0.89,0.66c0.14,0.16,0.25,0.33,0.31,0.54c0.06,0.25,0.02,0.49-0.11,0.71c-0.18,0.32-0.46,0.54-0.76,0.74
		c-0.46,0.3-0.96,0.49-1.48,0.64c-0.45,0.13-0.91,0.22-1.38,0.28c-0.21,0.03-0.42,0.05-0.63,0.06C9.98,7.82,9.55,7.84,9.12,7.83
		c-0.37-0.01-0.73-0.05-1.1-0.09C7.58,7.69,7.14,7.6,6.71,7.47c-0.34-0.1-0.67-0.21-0.99-0.36c-0.28-0.13-0.56-0.29-0.8-0.48
		C4.7,6.45,4.5,6.25,4.38,5.99c-0.17-0.36-0.09-0.7,0.13-1.01c0.22-0.31,0.51-0.53,0.84-0.71c0.68-0.39,1.42-0.61,2.19-0.75
		c0.43-0.08,0.86-0.13,1.29-0.15c0.11-0.01,0.23-0.01,0.34-0.01c0.02,0,0.04-0.01,0.06-0.01C9.43,3.34,9.63,3.34,9.83,3.34z"/>
	<path class="st0" d="M4.29,6.77C4.4,6.86,4.5,6.95,4.6,7.03c0.28,0.22,0.59,0.4,0.92,0.55c0.4,0.18,0.81,0.32,1.24,0.43
		c0.49,0.13,0.98,0.21,1.48,0.27C8.83,8.34,9.41,8.36,10,8.34c0.8-0.03,1.58-0.13,2.35-0.34c0.55-0.15,1.08-0.34,1.57-0.62
		c0.3-0.17,0.58-0.36,0.83-0.6c0.01-0.01,0.01-0.01,0.02-0.02c0,0.44-0.01,0.87,0,1.3c0.01,0.3-0.1,0.54-0.29,0.75
		c-0.24,0.29-0.54,0.49-0.87,0.67c-0.59,0.31-1.21,0.51-1.86,0.63c-0.32,0.06-0.65,0.11-0.98,0.15c-0.48,0.06-0.97,0.08-1.46,0.06
		c-0.42-0.02-0.85-0.05-1.27-0.09c-0.57-0.06-1.13-0.18-1.68-0.36C5.86,9.71,5.35,9.49,4.92,9.15C4.69,8.97,4.49,8.77,4.38,8.5
		C4.33,8.39,4.3,8.27,4.29,8.15c-0.01-0.44,0-0.88,0-1.32C4.29,6.81,4.29,6.79,4.29,6.77z"/>
	<path class="st0" d="M4.29,9.33C4.5,9.54,4.73,9.71,4.98,9.85c0.37,0.22,0.77,0.38,1.17,0.52c0.46,0.15,0.93,0.26,1.41,0.33
		c0.34,0.05,0.67,0.09,1.01,0.11c0.42,0.03,0.85,0.04,1.27,0.04c0.68-0.01,1.35-0.07,2.02-0.2c0.68-0.13,1.35-0.32,1.98-0.64
		c0.33-0.17,0.64-0.37,0.91-0.63c0.01-0.01,0.02-0.01,0.04-0.03c0,0.04,0,0.06,0,0.08c0,0.38-0.01,0.77,0,1.15
		c0.01,0.28-0.09,0.52-0.27,0.73c-0.25,0.3-0.56,0.52-0.9,0.7c-0.62,0.33-1.29,0.53-1.97,0.65c-0.41,0.07-0.82,0.13-1.23,0.15
		C9.94,12.83,9.47,12.84,9,12.83c-0.72-0.02-1.42-0.12-2.12-0.3c-0.44-0.11-0.87-0.26-1.28-0.46c-0.33-0.16-0.64-0.35-0.9-0.61
		c-0.25-0.25-0.42-0.55-0.41-0.93c0.01-0.37,0-0.74,0-1.12C4.29,9.4,4.29,9.37,4.29,9.33z"/>
	<path class="st0" d="M4.29,11.84c0.26,0.25,0.54,0.45,0.84,0.61c0.7,0.37,1.45,0.59,2.23,0.72c0.36,0.06,0.73,0.1,1.1,0.14
		c0.53,0.06,1.07,0.06,1.61,0.04c0.84-0.03,1.67-0.13,2.48-0.35c0.48-0.13,0.95-0.3,1.39-0.53c0.29-0.16,0.57-0.34,0.8-0.57
		c0.01-0.01,0.02-0.01,0.03-0.03c0,0.15,0,0.3,0,0.44c0,0.26-0.01,0.51,0,0.77c0.01,0.29-0.09,0.53-0.27,0.75
		c-0.24,0.3-0.55,0.51-0.88,0.68c-0.65,0.35-1.34,0.55-2.06,0.68c-0.43,0.08-0.86,0.12-1.29,0.15c-0.48,0.03-0.95,0.03-1.43,0.01
		c-0.69-0.04-1.37-0.13-2.04-0.31c-0.58-0.15-1.14-0.36-1.65-0.69c-0.28-0.18-0.53-0.39-0.71-0.68c-0.11-0.17-0.17-0.36-0.16-0.56
		c0-0.39,0-0.78,0-1.16C4.29,11.9,4.29,11.88,4.29,11.84z"/>
</g>
</svg>
