<?xml version="1.0" encoding="utf-8"?>
<!-- Generator: Adobe Illustrator 25.4.1, SVG Export Plug-In . SVG Version: 6.00 Build 0)  -->
<svg version="1.1" id="Layer_1" xmlns="http://www.w3.org/2000/svg" xmlns:xlink="http://www.w3.org/1999/xlink" x="0px" y="0px"
	 viewBox="0 0 19 19" style="enable-background:new 0 0 19 19;" xml:space="preserve">
<style type="text/css">
	.st0{fill:#E5E9EF;}
</style>
<path class="st0" d="M7.98,15.96c-1.86,0-3.51-1.3-3.88-3.08c-0.19-0.9-0.07-1.77,0.4-2.58c0.06-0.1,0.07-0.17,0.02-0.29
	C4.06,9,4.03,7.97,4.49,6.96C4.8,6.28,5.31,5.77,5.95,5.37c0.88-0.55,1.76-1.11,2.62-1.68c1.3-0.85,2.66-0.97,4.04-0.3
	c1.16,0.57,1.91,1.52,2.14,2.81c0.16,0.87,0.03,1.71-0.45,2.47c-0.05,0.08-0.06,0.14-0.02,0.23c0.83,1.72,0.22,3.69-1.4,4.67
	c-0.74,0.45-1.46,0.93-2.19,1.38c-0.51,0.32-1,0.68-1.59,0.85C8.74,15.92,8.37,15.97,7.98,15.96z M5.7,11.32
	c-0.02,0.05-0.05,0.08-0.06,0.12c-0.24,0.84-0.1,1.58,0.48,2.25c0.77,0.87,2.11,1.06,3.07,0.43c0.99-0.65,2-1.3,3-1.93
	c0.63-0.4,1.06-1.27,0.95-2.01c-0.12-0.78-0.51-1.39-1.2-1.77c-0.55-0.3-1.14-0.42-1.77-0.25C9.69,8.31,9.31,8.61,8.89,8.85
	C8.66,8.98,8.46,9.17,8.2,9.25c-0.33,0.1-0.7-0.07-0.84-0.38c-0.13-0.29-0.04-0.64,0.21-0.8c1-0.63,1.99-1.27,2.99-1.9
	c0.54-0.34,1.09-0.04,1.14,0.6c0,0.07-0.01,0.12,0.08,0.15c0.49,0.16,0.94,0.39,1.35,0.71c0.37-0.97,0.12-1.85-0.54-2.49
	c-0.83-0.79-2.01-0.93-3.03-0.26C8.57,5.52,7.57,6.15,6.58,6.79C5.84,7.26,5.49,8.37,5.79,9.19c0.2,0.55,0.54,0.97,1.02,1.3
	c0.65,0.44,1.79,0.47,2.44,0.04c0.4-0.26,0.8-0.53,1.21-0.76c0.36-0.21,0.8-0.07,0.99,0.26c0.19,0.35,0.06,0.71-0.32,0.93
	c-0.21,0.12-0.41,0.26-0.62,0.39c-0.76,0.49-1.52,0.98-2.29,1.45c-0.48,0.3-1.07-0.02-1.08-0.58c0-0.15-0.06-0.18-0.17-0.22
	C6.51,11.84,6.09,11.63,5.7,11.32z"/>
</svg>
