<?xml version="1.0" encoding="utf-8"?>
<!-- Generator: Adobe Illustrator 25.4.1, SVG Export Plug-In . SVG Version: 6.00 Build 0)  -->
<svg version="1.1" id="Layer_1" xmlns="http://www.w3.org/2000/svg" xmlns:xlink="http://www.w3.org/1999/xlink" x="0px" y="0px"
	 viewBox="0 0 19 19" style="enable-background:new 0 0 19 19;" xml:space="preserve">
<style type="text/css">
	.st0{fill:#E5E9EF;}
</style>
<path class="st0" d="M3.52,9.33c0-0.99,0-1.97,0-2.96c0-0.33,0.13-0.56,0.41-0.72c1.71-0.98,3.42-1.95,5.13-2.94
	c0.3-0.17,0.58-0.17,0.88,0c1.72,0.99,3.44,1.97,5.16,2.95c0.27,0.15,0.41,0.38,0.41,0.7c0,1.99,0,3.98,0,5.97
	c0,0.31-0.13,0.53-0.39,0.68c-1.74,1-3.49,2-5.23,3c-0.26,0.15-0.51,0.15-0.77,0c-1.74-1-3.48-2-5.22-2.99
	c-0.26-0.15-0.39-0.37-0.39-0.68C3.52,11.34,3.52,10.33,3.52,9.33z M13.31,7.05c-0.88-1.57-2.85-2.66-5-2.06
	C6.45,5.52,4.93,7.35,5.1,9.71c0.15,2.03,1.71,3.84,3.87,4.12c1.91,0.24,3.64-0.84,4.36-2.26c-0.64-0.36-1.27-0.72-1.91-1.07
	c-0.83,1.32-2.44,1.4-3.4,0.53c-0.92-0.84-0.97-2.35-0.1-3.26c0.44-0.46,0.99-0.69,1.61-0.68c0.79,0.02,1.41,0.39,1.85,1.07
	C12.04,7.79,12.67,7.42,13.31,7.05z"/>
</svg>
