<?xml version="1.0" encoding="utf-8"?>
<!-- Generator: Adobe Illustrator 25.4.1, SVG Export Plug-In . SVG Version: 6.00 Build 0)  -->
<svg version="1.1" id="Layer_1" xmlns="http://www.w3.org/2000/svg" xmlns:xlink="http://www.w3.org/1999/xlink" x="0px" y="0px"
	 viewBox="0 0 19 19" style="enable-background:new 0 0 19 19;" xml:space="preserve">
<style type="text/css">
	.st0{fill:#E5E9EF;}
</style>
<g>
	<path class="st0" d="M26.96,105.35c0-0.4-0.17-0.69-0.51-0.89c-0.24-0.14-0.49-0.28-0.73-0.42c-1.17-0.67-2.33-1.34-3.5-2.01
		c-0.41-0.24-0.81-0.24-1.21,0.01c-0.12,0.07-0.24,0.14-0.36,0.21c-1.27,0.73-2.53,1.46-3.8,2.19c-0.36,0.21-0.57,0.51-0.57,0.92
		c0,1.67,0,3.33,0,5c0,0.17,0.03,0.34,0.14,0.48c0.7-0.42,1.4-0.83,2.12-1.21c-0.26-0.52-0.43-1.06-0.46-1.65
		c-0.08-1.79,1.3-3.42,3.08-3.63c1.45-0.17,2.59,0.38,3.43,1.57c0.09,0.12,0.08,0.18-0.06,0.26c-0.42,0.22-0.82,0.47-1.23,0.7
		c-0.06,0.03-0.1,0.08-0.18,0.07c-0.47,0.28-0.94,0.55-1.4,0.83c0.47-0.28,0.94-0.55,1.4-0.83c-0.01-0.02-0.01-0.04-0.02-0.05
		c-0.51-0.8-1.58-1.04-2.4-0.55c-0.82,0.5-1.09,1.55-0.61,2.39c0.4,0.69,1.15,1.01,1.93,0.84c0.5-0.11,0.86-0.42,1.14-0.84
		c0.51,0.29,1.02,0.58,1.53,0.87c-0.38,0.73-0.98,1.23-1.73,1.53c-1.6,0.65-3.4,0.07-4.34-1.38c-0.03-0.04-0.06-0.08-0.09-0.13
		c-0.72,0.39-1.42,0.8-2.12,1.21c0.07,0.19,0.23,0.3,0.39,0.4c1.42,0.82,2.84,1.64,4.26,2.45c0.37,0.21,0.74,0.21,1.11,0
		c1.43-0.82,2.85-1.64,4.27-2.46c0.17-0.1,0.31-0.22,0.39-0.41c0.11-0.15,0.12-0.32,0.12-0.49
		C26.96,108.67,26.96,107.01,26.96,105.35z M21.66,107.8C21.66,107.8,21.66,107.8,21.66,107.8c0.45,0.27,0.9,0.53,1.36,0.8
		C22.56,108.33,22.11,108.07,21.66,107.8z M24.56,108.68c-0.1,0-0.11-0.04-0.09-0.12c0.01-0.05,0.01-0.1,0.03-0.16
		c0.03-0.11,0.05-0.21-0.13-0.2c-0.12,0.01-0.09-0.09-0.09-0.15c0-0.06-0.02-0.16,0.08-0.13c0.23,0.05,0.24-0.1,0.27-0.26
		c0.01-0.08,0.02-0.16,0.03-0.24c-0.05,0-0.1-0.02-0.14-0.01c-0.12,0.02-0.14-0.05-0.14-0.15c0-0.11,0.03-0.17,0.15-0.15
		c0.18,0.03,0.22-0.07,0.24-0.22c0.01-0.08-0.02-0.2,0.1-0.23c0.18-0.05,0.24,0.01,0.21,0.19c-0.01,0.05-0.02,0.1-0.03,0.16
		c0,0.02-0.01,0.07,0,0.07c0.12,0.06,0.24,0.02,0.37,0.03c0.08,0.01,0.09-0.05,0.1-0.11c0.01-0.05,0.03-0.1,0.03-0.15
		c-0.01-0.18,0.1-0.2,0.24-0.19c0.07,0.01,0.09,0.04,0.08,0.1c-0.01,0.06-0.02,0.12-0.03,0.17c-0.03,0.11-0.02,0.19,0.13,0.18
		c0.14-0.01,0.09,0.1,0.09,0.17c0.01,0.07,0,0.14-0.1,0.12c-0.2-0.04-0.24,0.08-0.26,0.24c-0.02,0.14-0.1,0.31,0.18,0.27
		c0.1-0.01,0.07,0.09,0.07,0.15c0.01,0.06,0.01,0.15-0.09,0.13c-0.25-0.05-0.28,0.1-0.3,0.29c-0.01,0.09-0.01,0.19-0.16,0.18
		c-0.14-0.01-0.18-0.03-0.15-0.18c0.02-0.09,0.09-0.24,0.02-0.27c-0.11-0.05-0.26-0.05-0.38-0.01c-0.11,0.03-0.09,0.18-0.09,0.27
		C24.78,108.66,24.7,108.69,24.56,108.68z"/>
	<path class="st0" d="M25.1,107.93c0.28,0,0.31-0.04,0.32-0.42c0.01-0.2-0.14-0.09-0.21-0.09c-0.27-0.02-0.33,0.07-0.32,0.42
		C24.9,108.03,25.05,107.87,25.1,107.93z"/>
</g>
<g>
	<path class="st0" d="M14.86,6.86c0-0.4-0.17-0.69-0.51-0.89c-0.24-0.14-0.49-0.28-0.73-0.42c-1.17-0.67-2.33-1.34-3.5-2.01
		C9.71,3.29,9.31,3.29,8.91,3.54C8.79,3.61,8.67,3.67,8.55,3.74c-1.27,0.73-2.53,1.46-3.8,2.19C4.39,6.14,4.18,6.44,4.18,6.86
		c0,1.67,0,3.33,0,5c0,0.17,0.03,0.34,0.14,0.48c0.7-0.42,1.4-0.83,2.12-1.21C6.17,10.6,6,10.06,5.98,9.47
		C5.9,7.67,7.27,6.04,9.06,5.84c1.45-0.17,2.59,0.38,3.43,1.57c0.09,0.12,0.08,0.18-0.06,0.26c-0.42,0.22-0.82,0.47-1.23,0.7
		c-0.06,0.03-0.1,0.08-0.18,0.07c-0.47,0.28-0.94,0.55-1.4,0.83c0.47-0.28,0.94-0.55,1.4-0.83C11.02,8.42,11.01,8.4,11,8.38
		c-0.51-0.8-1.58-1.04-2.4-0.55c-0.82,0.5-1.09,1.55-0.61,2.39c0.4,0.69,1.15,1.01,1.93,0.84c0.5-0.11,0.86-0.42,1.14-0.84
		c0.51,0.29,1.02,0.58,1.53,0.87c-0.38,0.73-0.98,1.23-1.73,1.53c-1.6,0.65-3.4,0.07-4.34-1.38c-0.03-0.04-0.06-0.08-0.09-0.13
		c-0.72,0.39-1.42,0.8-2.12,1.21c0.07,0.19,0.23,0.3,0.39,0.4c1.42,0.82,2.84,1.64,4.26,2.45c0.37,0.21,0.74,0.21,1.11,0
		c1.43-0.82,2.85-1.64,4.27-2.46c0.17-0.1,0.31-0.22,0.39-0.41c0.11-0.15,0.12-0.32,0.12-0.49C14.86,10.18,14.85,8.52,14.86,6.86z
		 M9.55,9.31C9.55,9.31,9.55,9.31,9.55,9.31c0.45,0.27,0.9,0.53,1.36,0.8C10.46,9.84,10,9.58,9.55,9.31z M12.45,10.19
		c-0.1,0-0.11-0.04-0.09-0.12c0.01-0.05,0.01-0.1,0.03-0.16c0.03-0.11,0.05-0.21-0.13-0.2c-0.12,0.01-0.09-0.09-0.09-0.15
		c0-0.06-0.02-0.16,0.08-0.13c0.23,0.05,0.24-0.1,0.27-0.26c0.01-0.08,0.02-0.16,0.03-0.24c-0.05,0-0.1-0.02-0.14-0.01
		c-0.12,0.02-0.14-0.05-0.14-0.15c0-0.11,0.03-0.17,0.15-0.15c0.18,0.03,0.22-0.07,0.24-0.22c0.01-0.08-0.02-0.2,0.1-0.23
		c0.18-0.05,0.24,0.01,0.21,0.19c-0.01,0.05-0.02,0.1-0.03,0.16c0,0.02-0.01,0.07,0,0.07c0.12,0.06,0.24,0.02,0.37,0.03
		c0.08,0.01,0.09-0.05,0.1-0.11c0.01-0.05,0.03-0.1,0.03-0.15c-0.01-0.18,0.1-0.2,0.24-0.19c0.07,0.01,0.09,0.04,0.08,0.1
		c-0.01,0.06-0.02,0.12-0.03,0.17c-0.03,0.11-0.02,0.19,0.13,0.18c0.14-0.01,0.09,0.1,0.09,0.17c0.01,0.07,0,0.14-0.1,0.12
		c-0.2-0.04-0.24,0.08-0.26,0.24c-0.02,0.14-0.1,0.31,0.18,0.27c0.1-0.01,0.07,0.09,0.07,0.15c0.01,0.06,0.01,0.15-0.09,0.13
		c-0.25-0.05-0.28,0.1-0.3,0.29c-0.01,0.09-0.01,0.19-0.16,0.18c-0.14-0.01-0.18-0.03-0.15-0.18c0.02-0.09,0.09-0.24,0.02-0.27
		c-0.11-0.05-0.26-0.05-0.38-0.01c-0.11,0.03-0.09,0.18-0.09,0.27C12.67,10.17,12.59,10.2,12.45,10.19z"/>
	<path class="st0" d="M12.99,9.44c0.28,0,0.31-0.04,0.32-0.42c0.01-0.2-0.14-0.09-0.21-0.09c-0.27-0.02-0.33,0.07-0.32,0.42
		C12.79,9.54,12.95,9.38,12.99,9.44z"/>
</g>
</svg>
