<?xml version="1.0" encoding="utf-8"?>
<!-- Generator: Adobe Illustrator 25.4.1, SVG Export Plug-In . SVG Version: 6.00 Build 0)  -->
<svg version="1.1" id="Layer_1" xmlns="http://www.w3.org/2000/svg" xmlns:xlink="http://www.w3.org/1999/xlink" x="0px" y="0px"
	 viewBox="0 0 19 19" style="enable-background:new 0 0 19 19;" xml:space="preserve">
<style type="text/css">
	.st0{fill:#E5E9EF;}
</style>
<path class="st0" d="M9.34,3.35c0.11,0,0.23,0,0.34,0c0.18,0.13,0.38,0.24,0.54,0.4c1.65,1.64,3.29,3.28,4.93,4.92
	c0.16,0.16,0.29,0.33,0.36,0.54c0,0.1,0,0.21,0,0.31c-0.08,0.22-0.23,0.39-0.39,0.56c-1.63,1.62-3.26,3.25-4.88,4.88
	c-0.16,0.16-0.33,0.31-0.56,0.39c-0.1,0-0.21,0-0.31,0C9.2,15.23,9.01,15.14,8.86,15c-1.66-1.64-3.31-3.29-4.95-4.95
	C3.76,9.9,3.65,9.7,3.52,9.52c0-0.11,0-0.23,0-0.34c0.08-0.14,0.14-0.3,0.25-0.41C4.91,7.6,6.06,6.46,7.21,5.3
	c0.09-0.09,0.15-0.09,0.24,0c0.37,0.38,0.75,0.76,1.13,1.13c0.08,0.08,0.1,0.16,0.07,0.27C8.57,7.07,8.71,7.45,9.03,7.65
	C9.16,7.74,9.2,7.84,9.19,7.99c0,0.92-0.01,1.85,0,2.77c0,0.19-0.05,0.31-0.21,0.43c-0.44,0.32-0.48,0.95-0.11,1.34
	c0.36,0.38,0.97,0.38,1.34-0.01c0.36-0.39,0.31-1-0.12-1.33C9.97,11.1,9.94,11,9.94,10.86c0-0.93,0-1.87,0-2.8
	c0-0.06,0.01-0.12,0.02-0.22c0.07,0.06,0.11,0.1,0.15,0.13c0.31,0.31,0.62,0.62,0.93,0.93c0.1,0.1,0.14,0.18,0.11,0.33
	c-0.09,0.4,0.11,0.79,0.46,0.98c0.36,0.19,0.78,0.13,1.07-0.15c0.29-0.28,0.36-0.71,0.17-1.07c-0.18-0.35-0.57-0.55-0.97-0.48
	c-0.1,0.02-0.18,0-0.25-0.07c-0.37-0.38-0.75-0.74-1.11-1.12c-0.05-0.05-0.08-0.16-0.07-0.23c0.09-0.66-0.41-1.17-1.06-1.07
	C9.27,6.03,9.2,6.01,9.13,5.94C8.75,5.55,8.36,5.16,7.97,4.78c-0.09-0.09-0.09-0.15,0-0.24c0.29-0.28,0.57-0.58,0.87-0.86
	C8.99,3.55,9.18,3.46,9.34,3.35z"/>
</svg>
