<?xml version="1.0" encoding="utf-8"?>
<!-- Generator: Adobe Illustrator 25.4.1, SVG Export Plug-In . SVG Version: 6.00 Build 0)  -->
<svg version="1.1" id="Layer_1" xmlns="http://www.w3.org/2000/svg" xmlns:xlink="http://www.w3.org/1999/xlink" x="0px" y="0px"
	 viewBox="0 0 19 19" style="enable-background:new 0 0 19 19;" xml:space="preserve">
<style type="text/css">
	.st0{fill:#E5E9EF;}
</style>
<g>
	<path class="st0" d="M8.47,5.11C8.49,5.13,8.5,5.15,8.51,5.17c1.85,2.78,3.7,5.55,5.56,8.33c0.02,0.02,0.03,0.05,0.04,0.08
		c-0.71,0-1.41,0-2.12,0c-0.01-0.01-0.01-0.03-0.02-0.04c-0.57-0.85-1.14-1.7-1.7-2.55c-0.01-0.01-0.02-0.02-0.03-0.04
		c-0.01,0.02-0.03,0.03-0.04,0.05c-0.56,0.85-1.13,1.69-1.69,2.54c-0.01,0.02-0.02,0.04-0.03,0.05c-0.71,0-1.42,0-2.13,0
		c0.02-0.03,0.03-0.05,0.05-0.08c0.91-1.36,1.82-2.72,2.72-4.08c0.06-0.08,0.06-0.06,0-0.15C8.21,7.9,7.29,6.54,6.38,5.17
		C6.37,5.15,6.36,5.13,6.35,5.11C7.06,5.11,7.77,5.11,8.47,5.11z"/>
	<path class="st0" d="M5.64,13.58c-0.71,0-1.41,0-2.12,0c0.02-0.03,0.03-0.05,0.05-0.08c0.91-1.37,1.82-2.74,2.74-4.1
		c0.04-0.06,0.04-0.05,0-0.11C5.7,8.37,5.09,7.46,4.47,6.54c-0.3-0.46-0.61-0.91-0.91-1.37C3.55,5.15,3.53,5.14,3.52,5.12
		c0,0,0-0.01,0-0.01c0.01,0,0.02,0,0.04,0c0.7,0,1.39,0,2.09,0c0.02,0.02,0.03,0.05,0.05,0.07c0.91,1.37,1.82,2.73,2.74,4.1
		c0.05,0.07,0.05,0.06,0,0.13c-0.91,1.37-1.82,2.73-2.73,4.1C5.68,13.53,5.66,13.56,5.64,13.58z"/>
	<path class="st0" d="M15.52,8.99c-0.02,0-0.05,0-0.07,0c-1.2,0-2.4,0-3.6,0c-0.06,0-0.09-0.02-0.13-0.07
		c-0.28-0.43-0.57-0.85-0.85-1.28c-0.01-0.02-0.02-0.04-0.04-0.06c0.02,0,0.02-0.01,0.03-0.01c0.02,0,0.04,0,0.06,0c1.5,0,3,0,4.5,0
		c0.03,0,0.06,0,0.08,0C15.52,8.05,15.52,8.52,15.52,8.99z"/>
	<path class="st0" d="M15.52,11.11c-0.02,0-0.04,0-0.07,0c-0.73,0-1.46,0-2.2,0c-0.06,0-0.09-0.02-0.12-0.06
		c-0.28-0.43-0.57-0.85-0.85-1.27c-0.01-0.02-0.02-0.04-0.04-0.06c0.02,0,0.03-0.01,0.04-0.01c0.02,0,0.04,0,0.06,0
		c1.03,0,2.06,0,3.1,0c0.03,0,0.05,0,0.08,0C15.52,10.17,15.52,10.64,15.52,11.11z"/>
</g>
</svg>
