<?xml version="1.0" encoding="utf-8"?>
<!-- Generator: Adobe Illustrator 25.4.1, SVG Export Plug-In . SVG Version: 6.00 Build 0)  -->
<svg version="1.1" id="Layer_1" xmlns="http://www.w3.org/2000/svg" xmlns:xlink="http://www.w3.org/1999/xlink" x="0px" y="0px"
	 viewBox="0 0 19 19" style="enable-background:new 0 0 19 19;" xml:space="preserve">
<style type="text/css">
	.st0{fill:#E5E9EF;}
</style>
<g>
	<path class="st0" d="M15.13,84.33c0-4,0-8,0-12c4,0,8,0,12,0c0,4,0,8,0,12C23.13,84.33,19.13,84.33,15.13,84.33z M23.19,81.7
		c0,0-0.01,0-0.01,0c-0.3,0.17-0.59,0.34-0.89,0.52c-0.02,0.01-0.01,0.02-0.01,0.04c0.22,0.41,0.54,0.72,0.96,0.91
		c0.32,0.15,0.66,0.21,1.01,0.22c0.17,0,0.34-0.01,0.51-0.03c0.22-0.03,0.43-0.09,0.62-0.19c0.35-0.18,0.6-0.44,0.73-0.81
		c0.1-0.28,0.1-0.57,0.06-0.87c-0.05-0.33-0.21-0.61-0.45-0.84c-0.19-0.17-0.4-0.3-0.63-0.41c-0.23-0.11-0.47-0.21-0.71-0.32
		c-0.15-0.07-0.29-0.13-0.42-0.22c-0.16-0.11-0.24-0.26-0.24-0.45c0.01-0.2,0.1-0.34,0.28-0.42c0.15-0.07,0.31-0.06,0.47-0.03
		c0.18,0.04,0.3,0.15,0.41,0.29c0.04,0.05,0.07,0.11,0.11,0.16c0.29-0.19,0.58-0.38,0.88-0.56c-0.02-0.04-0.04-0.07-0.06-0.1
		c-0.13-0.2-0.28-0.37-0.47-0.51c-0.25-0.17-0.52-0.25-0.82-0.28c-0.17-0.02-0.34-0.02-0.51,0c-0.2,0.02-0.39,0.07-0.57,0.16
		c-0.5,0.25-0.78,0.66-0.82,1.22c-0.01,0.15,0,0.3,0.03,0.45c0.06,0.33,0.21,0.6,0.45,0.83c0.2,0.18,0.43,0.32,0.67,0.43
		c0.23,0.1,0.46,0.2,0.68,0.3c0.14,0.06,0.28,0.13,0.4,0.22c0.18,0.14,0.26,0.33,0.21,0.55c-0.04,0.17-0.16,0.28-0.31,0.35
		c-0.12,0.06-0.24,0.08-0.37,0.09c-0.17,0.01-0.33-0.01-0.49-0.07c-0.22-0.08-0.4-0.22-0.54-0.41
		C23.28,81.84,23.24,81.77,23.19,81.7z M20.54,77.83c0,0.02,0,0.03,0,0.05c0,1.18,0,2.37,0,3.55c0,0.09,0,0.18,0,0.26
		c0,0.1-0.01,0.21-0.04,0.31c-0.04,0.16-0.13,0.27-0.29,0.33c-0.13,0.05-0.27,0.05-0.41,0.03c-0.15-0.03-0.28-0.11-0.37-0.23
		c-0.07-0.1-0.13-0.2-0.2-0.3c-0.01-0.01-0.01-0.02-0.02-0.03c-0.31,0.19-0.61,0.37-0.92,0.56c0,0.01,0,0.01,0.01,0.02
		c0.16,0.34,0.4,0.61,0.72,0.79c0.27,0.15,0.57,0.22,0.88,0.23c0.24,0.01,0.49-0.01,0.72-0.08c0.45-0.14,0.77-0.42,0.93-0.87
		c0.09-0.24,0.12-0.49,0.12-0.75c0-1.27,0-2.54,0-3.81c0-0.03-0.01-0.04-0.04-0.04c-0.35,0-0.7,0-1.06,0
		C20.56,77.83,20.55,77.83,20.54,77.83z"/>
</g>
<g>
	<path class="st0" d="M3.52,15.35c0-4,0-8,0-12c4,0,8,0,12,0c0,4,0,8,0,12C11.52,15.35,7.52,15.35,3.52,15.35z M11.57,12.72
		c0,0-0.01,0-0.01,0c-0.3,0.17-0.59,0.34-0.89,0.52c-0.02,0.01-0.01,0.02-0.01,0.04c0.22,0.41,0.54,0.72,0.96,0.91
		c0.32,0.15,0.66,0.21,1.01,0.22c0.17,0,0.34-0.01,0.51-0.03c0.22-0.03,0.43-0.09,0.62-0.19c0.35-0.18,0.6-0.44,0.73-0.81
		c0.1-0.28,0.1-0.57,0.06-0.87c-0.05-0.33-0.21-0.61-0.45-0.84c-0.19-0.17-0.4-0.3-0.63-0.41c-0.23-0.11-0.47-0.21-0.71-0.32
		c-0.15-0.07-0.29-0.13-0.42-0.22c-0.16-0.11-0.24-0.26-0.24-0.45c0.01-0.2,0.1-0.34,0.28-0.42c0.15-0.07,0.31-0.06,0.47-0.03
		c0.18,0.04,0.3,0.15,0.41,0.29c0.04,0.05,0.07,0.11,0.11,0.16c0.29-0.19,0.58-0.38,0.88-0.56c-0.02-0.04-0.04-0.07-0.06-0.1
		c-0.13-0.2-0.28-0.37-0.47-0.51C13.47,8.91,13.2,8.83,12.9,8.8c-0.17-0.02-0.34-0.02-0.51,0c-0.2,0.02-0.39,0.07-0.57,0.16
		c-0.5,0.25-0.78,0.66-0.82,1.22c-0.01,0.15,0,0.3,0.03,0.45c0.06,0.33,0.21,0.6,0.45,0.83c0.2,0.18,0.43,0.32,0.67,0.43
		c0.23,0.1,0.46,0.2,0.68,0.3c0.14,0.06,0.28,0.13,0.4,0.22c0.18,0.14,0.26,0.33,0.21,0.55c-0.04,0.17-0.16,0.28-0.31,0.35
		c-0.12,0.06-0.24,0.08-0.37,0.09c-0.17,0.01-0.33-0.01-0.49-0.07c-0.22-0.08-0.4-0.22-0.54-0.41
		C11.67,12.86,11.62,12.79,11.57,12.72z M8.92,8.85c0,0.02,0,0.03,0,0.05c0,1.18,0,2.37,0,3.55c0,0.09,0,0.18,0,0.26
		c0,0.1-0.01,0.21-0.04,0.31c-0.04,0.16-0.13,0.27-0.29,0.33c-0.13,0.05-0.27,0.05-0.41,0.03c-0.15-0.03-0.28-0.11-0.37-0.23
		c-0.07-0.1-0.13-0.2-0.2-0.3c-0.01-0.01-0.01-0.02-0.02-0.03C7.28,13,6.98,13.19,6.67,13.37c0,0.01,0,0.01,0.01,0.02
		c0.16,0.34,0.4,0.61,0.72,0.79c0.27,0.15,0.57,0.22,0.88,0.23c0.24,0.01,0.49-0.01,0.72-0.08c0.45-0.14,0.77-0.42,0.93-0.87
		c0.09-0.24,0.12-0.49,0.12-0.75c0-1.27,0-2.54,0-3.81c0-0.03-0.01-0.04-0.04-0.04c-0.35,0-0.7,0-1.06,0
		C8.95,8.85,8.94,8.85,8.92,8.85z"/>
</g>
</svg>
