<?xml version="1.0" encoding="utf-8"?>
<!-- Generator: Adobe Illustrator 25.4.1, SVG Export Plug-In . SVG Version: 6.00 Build 0)  -->
<svg version="1.1" id="Layer_1" xmlns="http://www.w3.org/2000/svg" xmlns:xlink="http://www.w3.org/1999/xlink" x="0px" y="0px"
	 viewBox="0 0 19 19" style="enable-background:new 0 0 19 19;" xml:space="preserve">
<style type="text/css">
	.st0{fill:#E8E8E8;}
</style>
<path class="st0" d="M2.52,9.4c0-0.28,0-0.56,0-0.84c0.01-0.01,0.01-0.02,0.02-0.03C2.57,8.21,2.62,7.89,2.77,7.6
	c0.01-0.02,0.01-0.03,0.02-0.05c0.03-0.19,0.12-0.35,0.2-0.52c0.25-0.5,0.63-0.9,1.04-1.26c0.18-0.16,0.35-0.36,0.64-0.33
	c-0.26,0-0.52,0-0.78,0c0.06-0.04,0.12-0.07,0.18-0.07c0.3,0,0.61,0,0.91,0.01c0.16,0.01,0.33,0.05,0.49,0.04
	c0.13-0.01,0.24,0,0.36,0.03c0.23,0.06,0.45,0.12,0.68,0.18c0.03,0.01,0.07,0.02,0.12,0.03C6.52,5.39,6.31,5.22,6.15,5.01
	c0.27,0.11,0.47,0.3,0.6,0.55C6.78,5.61,6.8,5.65,6.83,5.68c0.11,0.15,0.11,0.2-0.02,0.32C6.77,6.04,6.74,6.08,6.72,6.12
	c-0.16,0.4-0.26,0.82-0.34,1.25c-0.01,0.04,0,0.08,0.01,0.12c0.04,0.08,0.08,0.16,0.13,0.25c0.29,0.05,0.59,0.09,0.9,0.14
	c0.05-0.1,0.14-0.13,0.25-0.13c0.05,0,0.11,0,0.16-0.01c0.33-0.05,0.66-0.11,0.98-0.17c0.07-0.01,0.13,0,0.22,0
	c0.05-0.06,0.12-0.13,0.19-0.2c0.15-0.16,0.32-0.29,0.44-0.47c0.09-0.15,0.16-0.3,0.17-0.47c0.01-0.16-0.06-0.25-0.22-0.25
	c-0.1,0-0.21,0.01-0.31,0.02C9.15,6.22,8.98,6.23,8.89,6.4C8.88,6.41,8.86,6.42,8.84,6.43C8.68,6.5,8.57,6.64,8.44,6.76
	C8.41,6.79,8.38,6.82,8.35,6.84c-0.07,0.04-0.13,0.03-0.2-0.05c0.05-0.05,0.1-0.08,0.14-0.13C8.37,6.58,8.44,6.5,8.51,6.41
	c0.05-0.07,0.06-0.16,0.01-0.26c-0.05,0.01-0.1,0.02-0.13,0.04C8.36,6.22,8.34,6.27,8.33,6.3c-0.05,0-0.11-0.02-0.13,0
	C8.18,6.32,8.19,6.38,8.18,6.43c-0.06-0.01-0.1-0.03-0.16-0.04c0,0.05,0,0.09,0,0.14C7.93,6.51,7.86,6.48,7.78,6.46
	c-0.01,0-0.02-0.01-0.03-0.01C7.7,6.4,7.65,6.36,7.62,6.3C7.56,6.2,7.6,6.13,7.72,6.09c0.07-0.02,0.14-0.04,0.2-0.07
	c0.08-0.04,0.13-0.09,0.1-0.19C8,5.75,8.03,5.68,8.09,5.63C8.16,5.56,8.23,5.5,8.31,5.45C8.56,5.3,8.83,5.2,9.12,5.14
	c0.03-0.01,0.06,0,0.1-0.01C9.11,5.31,8.91,5.4,8.85,5.63C9.03,5.58,9.2,5.55,9.34,5.42c0.13-0.13,0.32-0.16,0.55-0.16
	C9.78,5.37,9.64,5.38,9.56,5.5c0.08,0,0.14,0,0.2,0c0.11,0.01,0.21,0.02,0.32-0.03c0.1-0.05,0.23-0.07,0.37,0.01
	c-0.1,0.05-0.18,0.09-0.26,0.13c0.12,0.1,0.23,0.19,0.37,0.22c0.07,0.01,0.14,0.05,0.18,0.13c-0.07,0.01-0.14,0.02-0.19,0.03
	c-0.05,0.22,0.09,0.34,0.2,0.48c-0.05-0.01-0.11-0.01-0.17-0.02c-0.01,0.14-0.08,0.28,0.04,0.4c0,0,0,0.02-0.01,0.04
	c-0.03,0-0.06,0-0.1,0c-0.05,0.2-0.11,0.4-0.16,0.6c0.06,0.02,0.1,0.04,0.15,0.05c0.37,0.06,0.74,0.13,1.11,0.18
	c0.11,0.02,0.21,0.03,0.26,0.13c0.24-0.04,0.46-0.07,0.67-0.1c0.05-0.1,0.09-0.2,0.15-0.33c-0.07-0.29-0.15-0.62-0.24-0.94
	c-0.05-0.18-0.09-0.37-0.26-0.5c-0.08-0.06-0.07-0.15,0-0.23c0.03-0.04,0.07-0.08,0.09-0.13c0.12-0.26,0.32-0.44,0.57-0.58
	c0.01-0.01,0.04,0,0.07,0c-0.18,0.21-0.39,0.37-0.49,0.64c0.27-0.07,0.52-0.14,0.77-0.2c0.12-0.03,0.25-0.07,0.38-0.03
	c0.04,0.01,0.09,0,0.14-0.01c0.4-0.06,0.8-0.07,1.21-0.05c0.08,0,0.15,0.03,0.23,0.04c0,0.01,0,0.02,0,0.04c-0.26,0-0.51,0-0.77,0
	c0.25,0.03,0.25,0.03,0.46,0.19c0.23,0.18,0.44,0.38,0.65,0.59c0.49,0.51,0.75,1.13,0.95,1.79c0.02,0.07,0.03,0.14,0.04,0.21
	c0.02,0.11,0.04,0.23,0.06,0.34c0,0.29,0,0.58,0,0.88c-0.01,0.02-0.02,0.04-0.02,0.07c-0.04,0.51-0.15,1-0.29,1.49
	c-0.02,0.06-0.02,0.13-0.1,0.19c0.01-0.06,0.01-0.1,0.02-0.14c0.04-0.15,0.05-0.3,0-0.46c-0.08-0.25-0.14-0.52-0.22-0.77
	c-0.07-0.22-0.19-0.41-0.37-0.57c-0.14-0.13-0.3-0.17-0.49-0.12c-0.15,0.04-0.3,0.1-0.36,0.27c-0.03-0.08-0.05-0.14-0.09-0.19
	c-0.12-0.15-0.27-0.27-0.44-0.37c-0.17-0.11-0.36-0.1-0.54-0.09c-0.12,0.01-0.23,0.06-0.3,0.2c-0.02-0.08-0.04-0.13-0.05-0.17
	c-0.03,0-0.06,0-0.08-0.01c-0.19-0.13-0.4-0.14-0.62-0.09c-0.32,0.06-0.58,0.23-0.86,0.38c-0.31,0.17-0.6,0.39-0.96,0.44
	c-0.02,0-0.03,0.02-0.05,0.02c-0.07,0.03-0.15,0.06-0.23,0.08c-0.11,0.02-0.21,0.03-0.34,0.05c0.01,0.08,0.01,0.16,0.01,0.22
	c0.03,0.01,0.04,0.01,0.06,0.01c0.28,0.03,0.4,0.15,0.41,0.44c0,0.1,0.06,0.18,0.13,0.26c0.12-0.13,0.24-0.26,0.34-0.39
	c0.08-0.1,0.17-0.14,0.29-0.15c0.12-0.01,0.25-0.02,0.37,0c0.11,0.01,0.22,0.06,0.27,0.17c0.05,0.11,0.1,0.22,0.14,0.33
	c0.05,0.11,0.05,0.23,0,0.34c-0.01,0.03-0.04,0.04-0.07,0.07c-0.07-0.08-0.06-0.19-0.15-0.24c-0.06,0.12-0.05,0.27-0.2,0.35
	c-0.05-0.13-0.02-0.28-0.15-0.38c-0.05,0.13-0.07,0.29-0.24,0.36c-0.04-0.12,0.01-0.26-0.08-0.37c-0.07,0.07-0.13,0.14-0.2,0.2
	c-0.11,0.1-0.22,0.21-0.34,0.3c-0.11,0.08-0.14,0.07-0.23-0.04c-0.1-0.13-0.2-0.26-0.3-0.39c0.03,0.33,0.08,0.65,0.16,0.96
	c0.03,0,0.04,0,0.05,0c0.48-0.23,0.98-0.29,1.5-0.26c0.38,0.02,0.74,0.15,1.02,0.41c0.37,0.35,0.41,0.89,0.13,1.26
	c-0.19,0.25-0.44,0.43-0.74,0.54c-0.08,0.03-0.16,0.05-0.23,0.07c-0.19,0-0.37,0-0.56,0c-0.03-0.02-0.06-0.04-0.09-0.04
	c-0.29-0.04-0.56-0.14-0.82-0.29c-0.28-0.17-0.51-0.39-0.7-0.65c-0.07-0.1-0.13-0.2-0.19-0.28c-0.02,0.04-0.03,0.08-0.06,0.09
	c-0.06,0.04-0.14,0.07-0.21,0.1c-0.19,0.08-0.37,0.18-0.57,0.23c-0.14,0.04-0.27,0.09-0.41,0.14C7.9,13.2,7.3,13.31,6.68,13.13
	c-0.13-0.04-0.25-0.1-0.36-0.17c-0.11-0.07-0.2-0.17-0.22-0.35c0.06,0.04,0.1,0.07,0.13,0.09c0.06,0.04,0.13,0.09,0.2,0.11
	c0.21,0.05,0.42,0.1,0.64,0.11c0.31,0.03,0.6-0.08,0.89-0.16c0.51-0.14,0.96-0.43,1.43-0.65c0.11-0.05,0.11-0.09,0.07-0.22
	c-0.11-0.29-0.21-0.58-0.32-0.87c-0.04-0.12-0.08-0.24-0.12-0.37c-0.11,0.14-0.21,0.28-0.3,0.41c-0.09,0.13-0.12,0.14-0.25,0.05
	c-0.12-0.09-0.23-0.2-0.34-0.3C8.06,10.77,8,10.71,7.94,10.64c-0.12,0.11-0.06,0.25-0.09,0.39c-0.16-0.09-0.2-0.23-0.23-0.37
	c-0.14,0.09-0.09,0.26-0.17,0.38c-0.14-0.09-0.13-0.24-0.18-0.39c-0.06,0.11-0.11,0.2-0.16,0.3c-0.14-0.19-0.1-0.36-0.01-0.53
	c0.03-0.05,0.06-0.1,0.08-0.15c0.05-0.16,0.13-0.24,0.3-0.25c0.12-0.01,0.23-0.01,0.35,0C7.9,10.04,8,10.06,8.06,10.14
	c0.09,0.11,0.18,0.21,0.28,0.32c0.04,0.05,0.08,0.09,0.13,0.14c0.07-0.12,0.12-0.21,0.12-0.34c-0.01-0.13,0.06-0.23,0.16-0.3
	c0.14-0.08,0.13-0.19,0.09-0.31C8.81,9.64,8.8,9.63,8.78,9.63c-0.26,0-0.48-0.11-0.71-0.21c-0.25-0.1-0.49-0.24-0.73-0.37
	C7.05,8.89,6.77,8.72,6.44,8.66C6.23,8.61,6.04,8.64,5.85,8.75C5.82,8.77,5.79,8.77,5.76,8.79C5.75,8.83,5.73,8.88,5.72,8.92
	C5.67,8.81,5.58,8.78,5.49,8.76c-0.2-0.04-0.41-0.05-0.6,0.06C4.67,8.96,4.44,9.1,4.35,9.38c-0.04-0.05-0.06-0.11-0.1-0.14
	C4,9.08,3.73,9.02,3.47,9.27C3.33,9.4,3.24,9.56,3.17,9.72C3.04,10,2.97,10.3,2.91,10.6c-0.01,0.03,0,0.08-0.02,0.1
	c-0.06,0.05-0.03,0.1-0.02,0.16c0.02,0.1,0.04,0.2,0.07,0.34c-0.09-0.07-0.1-0.15-0.12-0.21c-0.07-0.32-0.15-0.64-0.21-0.96
	C2.57,9.82,2.55,9.61,2.52,9.4z M10.57,12.15c0.2,0.31,0.45,0.56,0.79,0.72c0.14,0.07,0.29,0.05,0.44,0.06
	c0.25,0.01,0.55-0.16,0.65-0.39c0.04-0.1,0.05-0.23-0.03-0.29c-0.11-0.09-0.25-0.18-0.39-0.22c-0.33-0.11-0.66-0.11-1-0.05
	C10.87,12,10.7,12.03,10.57,12.15z"/>
</svg>
