<?xml version="1.0" encoding="utf-8"?>
<!-- Generator: Adobe Illustrator 25.4.1, SVG Export Plug-In . SVG Version: 6.00 Build 0)  -->
<svg version="1.1" id="Layer_1" xmlns="http://www.w3.org/2000/svg" xmlns:xlink="http://www.w3.org/1999/xlink" x="0px" y="0px"
	 viewBox="0 0 19 19" style="enable-background:new 0 0 19 19;" xml:space="preserve">
<style type="text/css">
	.st0{fill:#E5E9EF;}
</style>
<g>
	<path class="st0" d="M9.89,3.28c0,0.02,0.01,0.01,0.02,0.01C10,3.29,10.08,3.3,10.16,3.3c0.17,0.01,0.34,0.03,0.51,0.05
		c0.15,0.02,0.3,0.04,0.44,0.08c0.39,0.1,0.72,0.29,0.97,0.61c0.2,0.25,0.31,0.54,0.31,0.87c0,0.94,0,1.87,0,2.81
		c0,0.41-0.18,0.76-0.48,1.04c-0.21,0.19-0.45,0.31-0.73,0.35c-0.09,0.02-0.18,0.02-0.27,0.02c-0.94,0-1.88,0-2.82,0
		c-0.44,0-0.83,0.13-1.17,0.41c-0.34,0.28-0.56,0.64-0.65,1.08c-0.02,0.1-0.03,0.2-0.03,0.3c0,0.43,0,0.86,0,1.3
		c0,0.03-0.01,0.04-0.04,0.04c-0.34,0-0.68,0-1.02,0c-0.37-0.01-0.69-0.15-0.95-0.42c-0.19-0.2-0.32-0.44-0.42-0.71
		c-0.08-0.22-0.13-0.46-0.18-0.69c-0.04-0.18-0.07-0.37-0.09-0.55C3.53,9.8,3.53,9.71,3.52,9.63c0-0.01,0.01-0.03-0.01-0.03
		c0-0.03,0-0.07,0-0.1c0,0,0,0,0,0c0,0,0,0,0-0.01c0-0.16,0-0.32,0-0.48c0.02,0,0.01-0.02,0.01-0.03c0.01-0.1,0.02-0.2,0.03-0.3
		C3.58,8.46,3.63,8.23,3.68,8c0.05-0.22,0.1-0.43,0.21-0.63c0.33-0.64,0.87-0.97,1.59-1c0.35-0.01,0.71,0,1.06,0
		c0.98,0,1.96,0,2.94,0c0.03,0,0.04-0.01,0.04-0.04c0-0.1,0-0.19,0-0.29C9.5,6,9.5,6,9.46,6C8.52,6,7.59,6,6.65,6
		C6.62,6,6.61,6,6.61,5.97c0-0.35,0-0.71,0-1.06c0-0.16,0.01-0.32,0.04-0.48c0.03-0.17,0.09-0.34,0.2-0.48
		C6.97,3.79,7.14,3.68,7.32,3.6c0.26-0.11,0.53-0.17,0.81-0.22C8.25,3.36,8.37,3.35,8.5,3.34c0.08-0.01,0.15-0.02,0.23-0.03
		C8.83,3.3,8.94,3.29,9.05,3.29c0.01,0,0.02,0.01,0.02-0.01c0.19,0,0.37,0,0.56,0c0.03,0,0.07,0.01,0.1,0
		C9.78,3.28,9.84,3.28,9.89,3.28z M7.33,4.72C7.32,5,7.56,5.27,7.87,5.27c0.3,0,0.55-0.25,0.55-0.55c0-0.3-0.25-0.55-0.55-0.55
		C7.57,4.17,7.33,4.42,7.33,4.72z"/>
	<path class="st0" d="M11.75,12.25c-0.74,0-1.47,0-2.21,0c-0.05,0-0.04,0-0.04,0.04c0,0.1,0,0.19,0,0.29c0,0.03,0.01,0.03,0.03,0.03
		c0.94,0,1.87,0,2.81,0c0.05,0,0.05,0,0.05,0.05c0,0.37,0,0.74,0,1.11c0,0.3-0.11,0.56-0.31,0.78c-0.17,0.2-0.39,0.34-0.63,0.45
		c-0.28,0.13-0.58,0.22-0.88,0.29c-0.22,0.05-0.43,0.08-0.65,0.1c-0.24,0.02-0.47,0.03-0.71,0.01c-0.44-0.03-0.87-0.12-1.29-0.25
		c-0.3-0.1-0.58-0.23-0.82-0.43c-0.21-0.17-0.37-0.38-0.45-0.65c-0.03-0.12-0.05-0.24-0.05-0.36c0-0.91-0.01-1.81,0-2.72
		c0-0.6,0.29-1.05,0.81-1.33c0.21-0.11,0.43-0.15,0.66-0.15c0.94,0,1.89,0,2.83,0c0.44,0,0.83-0.15,1.16-0.43
		c0.29-0.24,0.49-0.54,0.6-0.9c0.04-0.13,0.06-0.27,0.07-0.41c0.01-0.1,0-0.19,0-0.29c0-0.36,0-0.71,0-1.07
		c0-0.03,0.01-0.03,0.03-0.03c0.37,0,0.73,0,1.1,0c0.17,0,0.33,0.03,0.48,0.1c0.1,0.04,0.19,0.1,0.28,0.17
		c0.24,0.19,0.38,0.45,0.49,0.72c0.09,0.23,0.15,0.48,0.21,0.72c0.05,0.22,0.09,0.44,0.12,0.66c0.04,0.31,0.06,0.63,0.04,0.94
		c-0.04,0.64-0.23,1.23-0.5,1.81c-0.09,0.17-0.2,0.33-0.34,0.46c-0.17,0.15-0.36,0.24-0.59,0.27c-0.09,0.01-0.19,0.02-0.28,0.02
		C13.11,12.25,12.43,12.25,11.75,12.25C11.75,12.25,11.75,12.25,11.75,12.25z M11.13,13.35c-0.3,0-0.54,0.24-0.55,0.55
		c0,0.31,0.24,0.56,0.54,0.56c0.3,0,0.54-0.25,0.55-0.55C11.67,13.6,11.43,13.35,11.13,13.35z"/>
</g>
</svg>
