<?xml version="1.0" encoding="utf-8"?>
<!-- Generator: Adobe Illustrator 25.4.1, SVG Export Plug-In . SVG Version: 6.00 Build 0)  -->
<svg version="1.1" id="Layer_1" xmlns="http://www.w3.org/2000/svg" xmlns:xlink="http://www.w3.org/1999/xlink" x="0px" y="0px"
	 viewBox="0 0 19 19" style="enable-background:new 0 0 19 19;" xml:space="preserve">
<style type="text/css">
	.st0{fill:#E5E9EF;}
</style>
<g>
	<path class="st0" d="M27.89,17.66c0.03,0.04,0.1,0.08,0,0.12C27.89,17.74,27.89,17.7,27.89,17.66z"/>
</g>
<path class="st0" d="M12.58,15.54c-0.17,0-0.35,0-0.52,0c-0.01,0-0.01-0.01-0.02-0.01c-0.27-0.04-0.52-0.13-0.76-0.25
	c-0.51-0.24-0.96-0.58-1.38-0.95c-0.12-0.1-0.23-0.21-0.35-0.32c-0.02,0.01-0.03,0.03-0.04,0.04c-0.28,0.27-0.58,0.53-0.9,0.76
	c-0.37,0.27-0.76,0.5-1.21,0.63c-0.12,0.04-0.24,0.06-0.35,0.09c-0.17,0-0.35,0-0.52,0c-0.11-0.03-0.22-0.06-0.32-0.1
	C5.83,15.28,5.6,15,5.45,14.64c-0.15-0.36-0.2-0.75-0.2-1.14c0-0.48,0.06-0.95,0.16-1.42c0.03-0.13,0.06-0.26,0.09-0.4
	c-0.04-0.01-0.08-0.03-0.12-0.04c-0.58-0.17-1.14-0.39-1.65-0.7c-0.34-0.21-0.65-0.45-0.88-0.79C2.5,9.65,2.49,9.08,2.83,8.57
	c0.19-0.29,0.44-0.51,0.72-0.7c0.48-0.33,1.01-0.55,1.57-0.73C5.24,7.09,5.37,7.05,5.5,7.01c0-0.02-0.01-0.03-0.01-0.04
	c-0.1-0.41-0.18-0.82-0.22-1.24c-0.03-0.3-0.03-0.6,0-0.91c0.03-0.3,0.09-0.6,0.23-0.87C5.69,3.56,5.98,3.29,6.4,3.18
	c0.04-0.01,0.08-0.02,0.11-0.03c0.17,0,0.35,0,0.52,0c0.01,0,0.01,0.01,0.02,0.01C7.31,3.2,7.54,3.28,7.77,3.38
	c0.53,0.24,1,0.59,1.44,0.98c0.12,0.1,0.23,0.21,0.34,0.31C9.57,4.66,9.58,4.64,9.6,4.62c0.32-0.3,0.65-0.59,1.01-0.83
	c0.35-0.24,0.72-0.44,1.13-0.56c0.1-0.03,0.21-0.05,0.31-0.08c0.17,0,0.35,0,0.52,0c0,0,0.01,0.01,0.01,0.01
	c0.45,0.08,0.77,0.34,0.98,0.74c0.17,0.32,0.24,0.67,0.26,1.03c0.04,0.57-0.03,1.12-0.15,1.68c-0.03,0.13-0.06,0.26-0.09,0.4
	c0.11,0.03,0.21,0.06,0.32,0.1c0.55,0.18,1.09,0.4,1.58,0.72c0.31,0.21,0.59,0.45,0.79,0.77c0.17,0.27,0.25,0.57,0.22,0.89
	c-0.03,0.3-0.17,0.57-0.36,0.8c-0.26,0.32-0.6,0.56-0.96,0.76c-0.49,0.27-1.01,0.46-1.54,0.62c-0.05,0.01-0.05,0.03-0.04,0.07
	c0.16,0.65,0.27,1.31,0.23,1.99c-0.02,0.32-0.07,0.64-0.2,0.94c-0.15,0.35-0.38,0.62-0.74,0.78C12.79,15.48,12.68,15.51,12.58,15.54
	z M9.52,7.09c-0.38,0.02-0.79,0.04-1.2,0.06c-0.02,0-0.05,0.02-0.06,0.03C7.8,7.86,7.39,8.57,7.03,9.31c-0.01,0.02-0.01,0.06,0,0.08
	c0.36,0.74,0.77,1.44,1.23,2.12c0.01,0.02,0.04,0.03,0.06,0.03c0.08,0.01,0.16,0.02,0.24,0.02c0.46,0.01,0.92,0.02,1.38,0.02
	c0.26,0,0.53-0.02,0.79-0.03c0.06,0,0.11-0.02,0.14-0.08c0.44-0.66,0.84-1.35,1.19-2.06c0.02-0.04,0.02-0.08,0-0.12
	c-0.35-0.71-0.74-1.4-1.19-2.06c-0.04-0.06-0.08-0.08-0.15-0.09C10.33,7.13,9.94,7.11,9.52,7.09z M9.12,5.09
	C9.11,5.09,9.09,5.08,9.08,5.06c-0.15-0.14-0.3-0.28-0.46-0.41C8.3,4.39,7.96,4.15,7.59,3.96C7.31,3.83,7.02,3.73,6.71,3.74
	c-0.23,0.01-0.41,0.1-0.55,0.28C5.98,4.26,5.91,4.54,5.88,4.82c-0.03,0.28-0.03,0.55,0,0.83c0.03,0.39,0.11,0.78,0.2,1.17
	C6.08,6.85,6.1,6.86,6.13,6.85c0.1-0.02,0.19-0.04,0.29-0.06C6.7,6.74,6.98,6.7,7.26,6.66C7.47,6.62,7.67,6.6,7.88,6.58
	c0.05-0.01,0.08-0.03,0.1-0.06c0.13-0.18,0.26-0.37,0.4-0.54C8.63,5.68,8.87,5.4,9.12,5.09z M9.13,13.58
	c-0.02-0.02-0.03-0.03-0.04-0.05c-0.39-0.43-0.76-0.88-1.09-1.36c-0.04-0.05-0.07-0.07-0.13-0.07c-0.22-0.02-0.44-0.04-0.65-0.08
	c-0.36-0.06-0.71-0.13-1.07-0.19c-0.04-0.01-0.06,0-0.06,0.04c-0.04,0.21-0.09,0.42-0.13,0.63c-0.08,0.48-0.13,0.96-0.06,1.45
	c0.03,0.24,0.1,0.47,0.23,0.67c0.14,0.21,0.34,0.32,0.59,0.33c0.23,0.01,0.44-0.04,0.65-0.13C8.05,14.55,8.59,14.08,9.13,13.58z
	 M5.66,7.59c-0.51,0.15-1,0.32-1.46,0.58C3.92,8.33,3.66,8.51,3.44,8.75C3.11,9.12,3.1,9.51,3.41,9.9c0.15,0.19,0.34,0.34,0.55,0.48
	c0.41,0.27,0.86,0.45,1.32,0.61c0.13,0.04,0.26,0.08,0.39,0.12c0.01-0.01,0.01-0.02,0.01-0.03c0.18-0.58,0.4-1.14,0.65-1.69
	C6.34,9.36,6.33,9.32,6.32,9.3c-0.15-0.36-0.3-0.72-0.44-1.08C5.8,8.01,5.73,7.8,5.66,7.59z M13.44,11.1
	C13.43,11.09,13.44,11.1,13.44,11.1c0.51-0.14,1.01-0.32,1.47-0.58c0.27-0.15,0.52-0.33,0.73-0.56c0.34-0.38,0.35-0.77,0.04-1.17
	c-0.13-0.17-0.3-0.3-0.47-0.42c-0.37-0.25-0.77-0.43-1.18-0.58c-0.2-0.07-0.4-0.13-0.59-0.2c-0.01,0.02-0.01,0.02-0.01,0.03
	c-0.18,0.58-0.4,1.14-0.65,1.69c-0.01,0.02-0.01,0.06,0,0.08c0.09,0.22,0.19,0.43,0.28,0.65C13.18,10.39,13.31,10.74,13.44,11.1z
	 M9.97,5.11C9.98,5.12,9.99,5.13,10,5.14c0.4,0.43,0.76,0.89,1.1,1.37c0.04,0.05,0.08,0.07,0.14,0.08c0.16,0.01,0.32,0.03,0.47,0.05
	c0.42,0.07,0.84,0.14,1.25,0.22c0.03,0.01,0.05,0,0.06-0.04c0.04-0.21,0.09-0.42,0.13-0.63c0.08-0.48,0.13-0.96,0.06-1.45
	c-0.03-0.24-0.1-0.47-0.24-0.67c-0.14-0.21-0.34-0.31-0.59-0.32c-0.21-0.01-0.4,0.04-0.6,0.11c-0.36,0.13-0.68,0.33-0.99,0.55
	C10.5,4.62,10.23,4.85,9.97,5.11z M9.98,13.59c0.01,0.01,0.01,0.01,0.02,0.02c0.33,0.31,0.67,0.61,1.05,0.86
	c0.31,0.2,0.63,0.37,0.99,0.45c0.19,0.04,0.38,0.05,0.57-0.01c0.24-0.09,0.38-0.27,0.48-0.5c0.12-0.29,0.15-0.59,0.15-0.89
	c0-0.4-0.05-0.8-0.12-1.19c-0.03-0.16-0.07-0.32-0.1-0.48c-0.02,0-0.04,0.01-0.06,0.01c-0.26,0.05-0.52,0.11-0.78,0.15
	c-0.32,0.05-0.64,0.08-0.96,0.12c-0.04,0.01-0.07,0.02-0.1,0.06c-0.18,0.24-0.36,0.48-0.54,0.72C10.38,13.12,10.18,13.35,9.98,13.59
	z M11.6,7.22c0.28,0.48,0.54,0.94,0.82,1.41c0.15-0.4,0.29-0.79,0.44-1.2C12.43,7.36,12.02,7.29,11.6,7.22z M11.6,11.47
	c0.42-0.07,0.83-0.14,1.26-0.22c-0.15-0.41-0.3-0.8-0.44-1.2C12.14,10.53,11.88,10.99,11.6,11.47z M7.49,7.23
	C7.07,7.28,6.66,7.35,6.24,7.45c0.15,0.4,0.29,0.79,0.44,1.19C6.95,8.16,7.22,7.7,7.49,7.23z M6.24,11.24
	c0.42,0.09,0.83,0.17,1.25,0.21c-0.27-0.47-0.54-0.93-0.81-1.4C6.53,10.46,6.39,10.85,6.24,11.24z M9.55,13.16
	c0.28-0.34,0.55-0.66,0.82-0.98c-0.55,0-1.08,0-1.63,0C9,12.51,9.27,12.83,9.55,13.16z M10.36,6.51c-0.27-0.33-0.54-0.65-0.81-0.97
	c-0.13,0.1-0.77,0.88-0.81,0.97C9.28,6.51,9.81,6.51,10.36,6.51z"/>
<path class="st0" d="M8.25,9.34c0-0.69,0.56-1.24,1.25-1.24c0.68,0,1.23,0.56,1.23,1.24c0,0.69-0.56,1.24-1.25,1.24
	C8.8,10.58,8.25,10.03,8.25,9.34z"/>
</svg>
