<?xml version="1.0" encoding="utf-8"?>
<!-- Generator: Adobe Illustrator 25.4.1, SVG Export Plug-In . SVG Version: 6.00 Build 0)  -->
<svg version="1.1" id="Layer_1" xmlns="http://www.w3.org/2000/svg" xmlns:xlink="http://www.w3.org/1999/xlink" x="0px" y="0px"
	 viewBox="0 0 19 19" style="enable-background:new 0 0 19 19;" xml:space="preserve">
<style type="text/css">
	.st0{fill:#E5E9EF;}
</style>
<path class="st0" d="M5.36,13.36c-0.06,0-0.12,0.01-0.18,0.01c-0.19,0-0.3-0.13-0.26-0.31c0.02-0.12,0.05-0.25,0.07-0.37
	c0.01-0.07-0.04-0.14-0.1-0.15c-0.13-0.02-0.25-0.04-0.38-0.06c-0.19-0.03-0.28-0.17-0.2-0.35c0.04-0.11,0.09-0.22,0.14-0.34
	c0.03-0.08,0-0.16-0.09-0.19C4.24,11.55,4.12,11.51,4,11.46c-0.17-0.06-0.22-0.22-0.12-0.37c0.07-0.11,0.14-0.21,0.21-0.32
	c0.04-0.07,0.03-0.15-0.04-0.19c-0.11-0.07-0.22-0.13-0.33-0.2c-0.16-0.1-0.18-0.26-0.05-0.39C3.74,9.9,3.83,9.81,3.91,9.72
	c0.05-0.05,0.05-0.13,0-0.19C3.82,9.45,3.72,9.36,3.63,9.28c-0.15-0.14-0.15-0.3,0.02-0.42c0.1-0.07,0.2-0.14,0.3-0.21
	c0.06-0.05,0.08-0.13,0.03-0.19C3.9,8.36,3.82,8.26,3.74,8.15C3.63,8,3.67,7.84,3.84,7.76c0.11-0.05,0.22-0.1,0.34-0.15
	c0.07-0.03,0.1-0.11,0.06-0.18C4.19,7.31,4.13,7.2,4.07,7.08C3.99,6.91,4.06,6.76,4.24,6.72c0.11-0.03,0.23-0.06,0.34-0.08
	c0.1-0.02,0.13-0.09,0.11-0.19C4.66,6.32,4.63,6.2,4.6,6.07c-0.04-0.16,0.06-0.3,0.23-0.31c0.13,0,0.26-0.01,0.39-0.02
	c0.07,0,0.13-0.08,0.12-0.14C5.33,5.47,5.31,5.33,5.31,5.19C5.3,5.04,5.42,4.93,5.57,4.94C5.7,4.96,5.83,4.98,5.97,5
	c0.07,0.01,0.14-0.04,0.15-0.11c0.02-0.12,0.03-0.24,0.04-0.36c0.02-0.22,0.16-0.31,0.36-0.24C6.63,4.33,6.74,4.37,6.85,4.4
	c0.08,0.03,0.16-0.01,0.19-0.09c0.04-0.12,0.07-0.24,0.11-0.36C7.2,3.77,7.36,3.71,7.52,3.81c0.1,0.06,0.21,0.12,0.31,0.18
	C7.9,4.03,7.99,4,8.03,3.93c0.06-0.11,0.12-0.23,0.18-0.34C8.3,3.44,8.46,3.41,8.6,3.52c0.1,0.08,0.19,0.16,0.28,0.24
	c0.06,0.05,0.16,0.05,0.21-0.02c0.08-0.1,0.16-0.19,0.24-0.29c0.13-0.15,0.28-0.15,0.41,0.01c0.07,0.09,0.15,0.19,0.22,0.28
	c0.05,0.06,0.14,0.07,0.2,0.02c0.1-0.08,0.2-0.17,0.3-0.25c0.14-0.11,0.3-0.08,0.38,0.08c0.06,0.11,0.11,0.22,0.16,0.32
	c0.04,0.07,0.14,0.1,0.21,0.06c0.11-0.06,0.22-0.12,0.33-0.18c0.16-0.09,0.31-0.02,0.37,0.15c0.03,0.11,0.06,0.23,0.1,0.34
	c0.02,0.08,0.12,0.13,0.19,0.1c0.12-0.04,0.23-0.08,0.35-0.11c0.17-0.05,0.31,0.03,0.33,0.2c0.02,0.12,0.02,0.25,0.04,0.38
	c0.01,0.08,0.09,0.14,0.17,0.13c0.13-0.02,0.26-0.03,0.39-0.05c0.15-0.02,0.27,0.09,0.26,0.24c-0.01,0.13-0.02,0.27-0.03,0.4
	c-0.01,0.08,0.07,0.15,0.14,0.16c0.13,0.01,0.27,0.02,0.4,0.03c0.14,0.01,0.24,0.14,0.2,0.28c-0.03,0.13-0.07,0.26-0.11,0.38
	c-0.02,0.07,0.03,0.17,0.1,0.19c0.12,0.03,0.25,0.07,0.37,0.1c0.17,0.05,0.24,0.2,0.16,0.35C14.92,7.2,14.86,7.3,14.81,7.4
	c-0.04,0.08-0.01,0.18,0.07,0.22c0.11,0.05,0.22,0.1,0.33,0.16c0.17,0.08,0.2,0.24,0.09,0.39c-0.07,0.09-0.15,0.19-0.22,0.28
	c-0.05,0.06-0.03,0.17,0.03,0.21c0.1,0.07,0.2,0.15,0.3,0.22c0.15,0.11,0.16,0.28,0.01,0.4c-0.09,0.07-0.17,0.15-0.26,0.22
	c-0.07,0.06-0.07,0.16-0.01,0.23c0.08,0.09,0.17,0.18,0.25,0.27c0.12,0.13,0.09,0.29-0.06,0.38c-0.1,0.06-0.19,0.11-0.29,0.17
	c-0.1,0.06-0.13,0.15-0.07,0.25c0.06,0.1,0.12,0.19,0.18,0.29c0.1,0.17,0.05,0.31-0.13,0.38c-0.11,0.04-0.22,0.08-0.34,0.12
	c-0.07,0.02-0.12,0.12-0.09,0.2c0.04,0.12,0.09,0.24,0.13,0.35c0.06,0.17-0.02,0.3-0.19,0.34c-0.12,0.02-0.24,0.04-0.36,0.05
	c-0.09,0.01-0.15,0.09-0.13,0.19c0.02,0.12,0.04,0.25,0.06,0.37c0.02,0.15-0.08,0.28-0.23,0.28c-0.13,0-0.26-0.01-0.39-0.02
	c-0.08,0-0.16,0.07-0.16,0.15c0,0.13-0.01,0.25-0.01,0.38c0,0.17-0.14,0.28-0.31,0.24c-0.12-0.03-0.23-0.06-0.35-0.09
	c-0.08-0.02-0.17,0.04-0.19,0.12c-0.03,0.12-0.05,0.25-0.08,0.37c-0.04,0.17-0.19,0.24-0.34,0.17c-0.11-0.05-0.22-0.1-0.34-0.16
	c-0.07-0.03-0.17,0-0.2,0.08c-0.05,0.12-0.1,0.24-0.15,0.35c-0.07,0.16-0.23,0.2-0.37,0.1c-0.09-0.07-0.18-0.13-0.28-0.2
	c-0.09-0.07-0.18-0.05-0.24,0.04c-0.07,0.1-0.13,0.2-0.2,0.3c-0.1,0.15-0.26,0.16-0.39,0.03c-0.09-0.09-0.17-0.18-0.26-0.27
	c-0.05-0.05-0.15-0.06-0.21,0c-0.09,0.09-0.18,0.18-0.27,0.27c-0.14,0.13-0.3,0.12-0.4-0.05c-0.06-0.1-0.13-0.2-0.19-0.3
	c-0.05-0.07-0.13-0.09-0.21-0.04c-0.1,0.07-0.21,0.14-0.31,0.21c-0.16,0.1-0.31,0.06-0.38-0.12c-0.05-0.11-0.09-0.22-0.13-0.34
	c-0.03-0.08-0.12-0.11-0.2-0.08c-0.12,0.05-0.23,0.1-0.35,0.15c-0.17,0.07-0.32-0.01-0.35-0.19c-0.02-0.13-0.05-0.25-0.07-0.38
	c-0.01-0.06-0.09-0.11-0.15-0.1C6.27,14.06,6.13,14.09,6,14.12c-0.16,0.03-0.29-0.07-0.29-0.23c0-0.13,0-0.26,0-0.39
	c0-0.08-0.06-0.14-0.14-0.14C5.5,13.35,5.43,13.35,5.36,13.36C5.36,13.36,5.36,13.36,5.36,13.36z M14.14,9.83
	c0.03-0.33,0.03-0.66,0-0.98c0-0.05-0.02-0.07-0.07-0.09c-0.26-0.13-0.52-0.26-0.77-0.39c-0.19-0.09-0.23-0.24-0.14-0.43
	c0.13-0.26,0.26-0.51,0.39-0.77c0.03-0.05,0.02-0.08,0-0.13c-0.7-1.18-1.72-1.92-3.06-2.22c-0.05-0.01-0.09,0-0.13,0.04
	c-0.2,0.21-0.41,0.41-0.61,0.61c-0.15,0.15-0.3,0.15-0.45,0C9.11,5.28,8.92,5.09,8.74,4.9c-0.08-0.08-0.15-0.1-0.25-0.07
	C7.52,5.06,6.71,5.55,6.04,6.29c-0.09,0.1-0.17,0.2-0.27,0.32c0.05,0,0.08,0,0.11,0c1.63,0,3.26,0,4.88,0c0.2,0,0.4,0.02,0.6,0.08
	c0.39,0.11,0.73,0.3,0.95,0.65c0.2,0.32,0.25,0.67,0.23,1.04c-0.02,0.31-0.11,0.6-0.32,0.84c-0.09,0.11-0.2,0.2-0.29,0.28
	c0.06,0.07,0.13,0.14,0.2,0.22c0.26,0.28,0.43,0.6,0.43,1c0,0.17,0.09,0.3,0.25,0.38c0.28,0.14,0.71-0.01,0.7-0.43
	c-0.01-0.25,0-0.5,0-0.75c0-0.03,0-0.06,0-0.09C13.72,9.83,13.92,9.83,14.14,9.83z M13.26,12.12c0-0.01-0.01-0.01-0.01-0.02
	c-0.03,0-0.05,0-0.08,0c-0.49,0-0.99-0.01-1.48,0c-0.36,0-0.63-0.15-0.8-0.46c-0.1-0.18-0.17-0.37-0.25-0.56
	c-0.11-0.27-0.21-0.54-0.34-0.8c-0.15-0.28-0.39-0.45-0.72-0.45c-0.45,0-0.9,0-1.35,0c-0.01,0-0.01,0.01-0.02,0.01
	c0,0.44,0,0.88,0,1.32c0.44,0,0.88,0,1.31,0c0,0.32,0,0.63,0,0.94c-1.24,0-2.48,0-3.74,0c0.1,0.12,0.19,0.22,0.27,0.33
	c0.05,0.07,0.11,0.08,0.19,0.06c0.28-0.05,0.56-0.09,0.84-0.13c0.19-0.03,0.31,0.08,0.34,0.27c0.04,0.29,0.09,0.58,0.14,0.87
	c0,0.03,0.03,0.06,0.05,0.07c0.47,0.21,0.96,0.35,1.47,0.39c0.37,0.03,0.74,0.03,1.1-0.03c0.43-0.06,0.85-0.18,1.25-0.37
	c0.02-0.01,0.05-0.04,0.05-0.07c0.04-0.27,0.08-0.53,0.13-0.8c0.01-0.08,0.03-0.17,0.07-0.23c0.08-0.12,0.21-0.13,0.34-0.1
	c0.28,0.05,0.56,0.09,0.84,0.13c0.02,0,0.06,0,0.07-0.02C13.05,12.37,13.15,12.24,13.26,12.12z M5.71,7.56c0,0.01,0,0.02,0,0.02
	C5.77,7.7,5.83,7.81,5.89,7.93c0.1,0.19,0.05,0.34-0.14,0.44C5.53,8.48,5.32,8.6,5.09,8.7C4.96,8.76,4.91,8.84,4.9,8.99
	c-0.05,0.73,0.05,1.43,0.32,2.1c0.02,0.05,0.05,0.06,0.1,0.06c0.37,0,0.73,0,1.1,0c0.02,0,0.05,0,0.07,0c0-1.21,0-2.4,0-3.6
	C6.23,7.56,5.97,7.56,5.71,7.56z M8.2,7.56c0,0.45,0,0.89,0,1.33c0.04,0,0.07,0,0.1,0c0.57,0,1.14,0,1.71,0c0.07,0,0.13,0,0.2,0
	c0.44-0.03,0.73-0.42,0.62-0.83c-0.08-0.3-0.35-0.5-0.69-0.49c-0.61,0-1.23,0-1.84,0C8.27,7.56,8.24,7.56,8.2,7.56z M9.9,4.71
	c0-0.21-0.17-0.38-0.38-0.38c-0.21,0-0.38,0.17-0.38,0.38c0,0.21,0.17,0.38,0.38,0.38C9.73,5.09,9.9,4.92,9.9,4.71z M5.1,8.3
	c0.21,0,0.38-0.17,0.38-0.38c0-0.21-0.17-0.38-0.38-0.38c-0.2,0-0.37,0.17-0.38,0.38C4.72,8.13,4.89,8.3,5.1,8.3z M13.95,8.3
	c0.21,0,0.38-0.17,0.38-0.38c0-0.2-0.17-0.38-0.38-0.38c-0.21,0-0.38,0.17-0.38,0.38C13.57,8.13,13.73,8.3,13.95,8.3z M6.79,13.49
	c0.21,0,0.38-0.17,0.38-0.38c0-0.21-0.18-0.38-0.38-0.38c-0.21,0-0.37,0.17-0.37,0.38C6.41,13.33,6.58,13.49,6.79,13.49z
	 M12.26,13.49c0.21,0,0.38-0.17,0.38-0.38c0-0.21-0.17-0.37-0.37-0.38c-0.21,0-0.38,0.17-0.38,0.38
	C11.88,13.33,12.05,13.49,12.26,13.49z"/>
</svg>
